<svg xmlns="http://www.w3.org/2000/svg" xmlns:xlink="http://www.w3.org/1999/xlink" width="500" height="380" viewBox="0 0 500 380">
  <defs>
    <clipPath id="clip-path">
      <rect id="Rectangle_1" data-name="Rectangle 1" width="500" height="380"/>
    </clipPath>
  </defs>
  <g id="add_chat" clip-path="url(#clip-path)">
    <g id="add_chat-2" data-name="add_chat" clip-path="url(#clip-path)">
      <g id="add_chat-3" data-name="add_chat" transform="translate(12.5 4.751)">
        <g id="bg">
          <path id="Path_1" data-name="Path 1" d="M451.4,263.738c-9.769,18.812-19.762,38.054-42.48,52.56-6.829,4.36-20.147,11.7-45.36,15.84-55.426,9.1-68.7-13.641-121.68-10.08-25.894,1.741-17.969,6.852-88.56,20.88-47.1,9.359-63.221,9.588-79.2,1.44-24.158-12.318-34.07-36.686-36.72-43.2-1.977-4.859-12.173-31.149-2.88-60.48C41.1,219.92,50.075,220.943,59,198.218c9.4-23.931,7.611-45.861,6.48-59.76C62.141,97.468,46.832,92.947,51.8,71.5c6.272-27.091,36.925-46.783,63.36-50.08,17.345-2.163,21.954,4.095,44.64,8.32,65,12.107,92.8-27.044,129.24-7.24,20.787,11.3,17.186,27,44.28,38.2,11.029,4.558,23.335,6.8,45.36,10.8,25.985,4.724,26.356,2.846,33.84,5.76,19.752,7.69,37.748,28.784,42.48,51.84,7.505,36.569-21.09,64.767-5.04,85.64,3.321,4.319,7.074,6.4,9.36,13,2.366,6.833,2.361,16.2-7.92,36Z" fill="#007aff" opacity="0.2"/>
          <path id="Path_2" data-name="Path 2" d="M116.6,326.378c-25.893-3.7-40.7-40.125-43.883-62.48-2.373-16.653-.986-33.63,1.619-50.248,3.137-20.005,8.132-39.987,17.882-57.734,6.747-12.281,15.9-23.461,27.288-31.715,11.464-8.311,26.826-9.82,37.413-18.863,12.929-11.043,6.931-20.1,18-33.12C193.806,49.993,231.212,52.894,239,53.5a104.082,104.082,0,0,1,35.28,9.36c18.269,8.165,24.116,16.692,56.16,36,8.619,5.194,13,7.814,16.53,8.975,21.719,7.143,33.875-4.985,49.71-.335,15.344,4.506,22.607,21.38,29.52,37.44a112.756,112.756,0,0,1,9.022,41.566c.55,23.458-7.191,40.011-20.914,58.373a228.867,228.867,0,0,0-22.178,36.277c-3.279,6.692-6.276,13.618-10.884,19.475-14.513,18.448-44.1,14.206-63.288,6.511-8.441-3.385-16.41-8.186-25.319-10.01-8.371-1.714-17.071-.681-25.417,1.15-21.15,4.641-41.8,14.417-63.374,12.537-9.448-.824-18.622-3.885-28.094-4.359a52.414,52.414,0,0,0-30.541,8.175c-9.157,5.843-16.691,13.447-28.613,11.746Z" fill="#007aff" opacity="0.9"/>
        </g>
        <g id="lines">
          <ellipse id="Ellipse_1" data-name="Ellipse 1" cx="237.5" cy="9.528" rx="237.5" ry="9.528" transform="translate(0 351.442)" fill="#fff"/>
        </g>
        <g id="others">
          <g id="Group_1" data-name="Group 1" opacity="0.9">
            <line id="Line_1" data-name="Line 1" x2="13.081" y2="14.434" transform="translate(68.585 227.224)" fill="none" stroke="#fff" stroke-linecap="round" stroke-miterlimit="10" stroke-width="3"/>
            <line id="Line_2" data-name="Line 2" y1="14.434" x2="13.081" transform="translate(68.585 227.224)" fill="none" stroke="#fff" stroke-linecap="round" stroke-miterlimit="10" stroke-width="3"/>
          </g>
          <g id="Group_2" data-name="Group 2">
            <path id="Path_3" data-name="Path 3" d="M396.007,219.419a4.94,4.94,0,0,0-3.817,2.16,8.161,8.161,0,0,0-1.547,4.627,8.914,8.914,0,0,0,4.982,7.661,56.692,56.692,0,0,0,6.778,5.517,57.465,57.465,0,0,0,4.97,3.089,58.77,58.77,0,0,0,12.075,5.006c6.186.662,11.5-2.882,12.669-7.6,1.126-4.493-1.919-8.367-2.341-8.888,3.75-6.008,3.723-13.1.106-17.623a13.326,13.326,0,0,0-7.56-4.475,18.4,18.4,0,0,0-5.738-.787H416.4a19.127,19.127,0,0,0-10.245,3.48,6.24,6.24,0,0,0-4.32.656c-2.438,1.48-3.577,4.962-2.523,8.5a4.762,4.762,0,0,0-3.3-1.324Z" fill="#e6e7e8"/>
            <path id="Path_4" data-name="Path 4" d="M396.007,219.419a4.94,4.94,0,0,0-3.817,2.16,8.161,8.161,0,0,0-1.547,4.627,8.914,8.914,0,0,0,4.982,7.661,56.692,56.692,0,0,0,6.778,5.517,57.465,57.465,0,0,0,4.97,3.089c5.717.173,10.491-3.223,11.6-7.675,1.126-4.493-1.919-8.367-2.346-8.885,3.754-6.011,3.728-13.1.111-17.626l-.153-.184H416.4a19.127,19.127,0,0,0-10.245,3.48,6.24,6.24,0,0,0-4.32.656c-2.438,1.48-3.577,4.962-2.523,8.5a4.762,4.762,0,0,0-3.3-1.324Z" fill="#fff"/>
          </g>
          <g id="Group_3" data-name="Group 3">
            <path id="Path_5" data-name="Path 5" d="M176.963,334.488A13.619,13.619,0,0,1,161.826,339a43.672,43.672,0,0,1-11.1.2,43.08,43.08,0,0,1-9.479-2.149,9.977,9.977,0,0,1-7.539-6.411,8.22,8.22,0,0,1-.364-2.492,9.871,9.871,0,0,1,1.385-4.872,11.768,11.768,0,0,1,6.025-5.075c.015-.366.045-.731.086-1.085a16.245,16.245,0,0,1,1.916-6.122c2.972-5.4,8.674-8.294,13.355-7.29a10.7,10.7,0,0,1,5.852,3.754,13.789,13.789,0,0,1,1.4,2.016,16.368,16.368,0,0,1,2.127,7.238,8.325,8.325,0,0,1,8.488-.838,7.635,7.635,0,0,1,1.828,1.211,8.134,8.134,0,0,1,.966,1.021,9.347,9.347,0,0,1,1.875,4.347c.209.627,2.142,6.818-1.7,12.036Z" fill="#e6e7e8"/>
            <path id="Path_6" data-name="Path 6" d="M174.451,326.579a13.614,13.614,0,0,1-15.137,4.511,43.24,43.24,0,0,1-20.576-1.945,11.276,11.276,0,0,1-4.74-2.314,9.594,9.594,0,0,1,.738-3.557,11.768,11.768,0,0,1,6.025-5.075c.015-.366.045-.731.086-1.085.184-.08.372-.159.562-.23a16.6,16.6,0,0,1,1.354-5.892c2.972-5.4,8.674-8.294,13.355-7.29a10.7,10.7,0,0,1,5.852,3.754,13.79,13.79,0,0,1,1.4,2.016,16.367,16.367,0,0,1,2.127,7.238,8.325,8.325,0,0,1,8.488-.838,7.635,7.635,0,0,1,1.828,1.211,8.135,8.135,0,0,1,.966,1.021,12.785,12.785,0,0,1-2.333,8.475Z" fill="#fff"/>
          </g>
          <g id="Group_4" data-name="Group 4">
            <path id="Path_7" data-name="Path 7" d="M254.659,59.035a8.855,8.855,0,0,0,3.61,3.61c4.292,2.241,8.779-.271,9.145-.481A22.425,22.425,0,0,0,287.3,66.887q.3-.075.572-.15c7.089-1.454,10.78-8.5,8.9-13.718-1.484-4.121-6.408-7-11.792-6.257a13.26,13.26,0,0,0-18.049-13.477,15.478,15.478,0,0,0-4.6,3.906,14.862,14.862,0,0,0-3.189,8.694c-.346.16-5.124,2.492-5.716,7.5a9.233,9.233,0,0,0,1.228,5.65Z" fill="#e6e7e8"/>
            <path id="Path_8" data-name="Path 8" d="M254.659,59.035a8.855,8.855,0,0,0,3.61,3.61c4.292,2.241,8.779-.271,9.145-.481A22.425,22.425,0,0,0,287.3,66.887a10,10,0,0,0,1.73-9.215c-1.479-4.121-6.408-7-11.792-6.257a13.786,13.786,0,0,0-6.924-12.81,13.094,13.094,0,0,0-7.977-1.414,14.862,14.862,0,0,0-3.189,8.694c-.346.16-5.124,2.492-5.716,7.5a9.233,9.233,0,0,0,1.228,5.65Z" fill="#fff"/>
          </g>
          <g id="Group_5" data-name="Group 5">
            <path id="Path_9" data-name="Path 9" d="M428.574,128.193a10.433,10.433,0,1,1-10.436-10.438A10.433,10.433,0,0,1,428.574,128.193Z" fill="#e6e7e8"/>
            <path id="Path_10" data-name="Path 10" d="M423.129,130.689a10.411,10.411,0,0,1-3.556,7.85,10.44,10.44,0,0,1-8.322-18.185,9.821,9.821,0,0,1,1.442-.1,10.44,10.44,0,0,1,10.437,10.437Z" fill="#fff"/>
          </g>
          <g id="Group_6" data-name="Group 6">
            <path id="Path_11" data-name="Path 11" d="M39.15,331.781a8.481,8.481,0,0,1-12.619,7.407A8.483,8.483,0,0,1,37.1,326.247a8.431,8.431,0,0,1,2.055,5.534Z" fill="#007aff" opacity="0.9"/>
            <path id="Path_12" data-name="Path 12" d="M39.15,331.781a8.479,8.479,0,1,1-2.054-5.534A8.479,8.479,0,0,1,39.15,331.781Z" fill="#007aff" opacity="0.8"/>
          </g>
          <g id="Group_7" data-name="Group 7">
            <path id="Path_13" data-name="Path 13" d="M169.47,8.969a8.963,8.963,0,0,1-14.622,6.952,8.856,8.856,0,0,1-.795-3.684A8.967,8.967,0,0,1,168.68,5.285a8.932,8.932,0,0,1,.791,3.684Z" fill="#007aff" opacity="0.6"/>
            <path id="Path_14" data-name="Path 14" d="M169.47,8.969a8.966,8.966,0,1,1-.791-3.685A8.966,8.966,0,0,1,169.47,8.969Z" fill="#007aff" opacity="0.6"/>
          </g>
          <g id="Group_8" data-name="Group 8">
            <path id="Path_15" data-name="Path 15" d="M147.771,177.995a6,6,0,0,0,2.445,2.445c2.907,1.518,5.946-.183,6.194-.326a15.189,15.189,0,0,0,13.468,3.2l.387-.1c4.8-.985,7.3-5.759,6.031-9.291-1.005-2.791-4.34-4.744-7.987-4.238a8.981,8.981,0,0,0-12.225-9.128,10.481,10.481,0,0,0-3.114,2.645,10.06,10.06,0,0,0-2.16,5.888c-.234.109-3.47,1.688-3.871,5.08a6.255,6.255,0,0,0,.832,3.827Z" fill="#e6e7e8"/>
            <path id="Path_16" data-name="Path 16" d="M147.771,177.995a6,6,0,0,0,2.445,2.445c2.907,1.518,5.946-.183,6.194-.326a15.189,15.189,0,0,0,13.468,3.2,6.774,6.774,0,0,0,1.172-6.241c-1-2.791-4.34-4.744-7.987-4.238a9.336,9.336,0,0,0-4.69-8.676,8.875,8.875,0,0,0-5.4-.958,10.06,10.06,0,0,0-2.16,5.888c-.234.109-3.47,1.688-3.871,5.08a6.255,6.255,0,0,0,.832,3.827Z" fill="#fff"/>
          </g>
          <g id="Group_9" data-name="Group 9" opacity="0.9">
            <line id="Line_3" data-name="Line 3" x2="8.16" y2="9.004" transform="translate(77.586 25.491)" fill="none" stroke="#006fba" stroke-linecap="round" stroke-miterlimit="10" stroke-width="3"/>
            <line id="Line_4" data-name="Line 4" y1="9.004" x2="8.16" transform="translate(77.586 25.491)" fill="none" stroke="#006fba" stroke-linecap="round" stroke-miterlimit="10" stroke-width="3"/>
          </g>
          <g id="Group_10" data-name="Group 10">
            <path id="Path_17" data-name="Path 17" d="M84.17,108.391a9.04,9.04,0,1,1-9.043-9.044,9.04,9.04,0,0,1,9.043,9.044Z" fill="#e6e7e8"/>
            <path id="Path_18" data-name="Path 18" d="M79.452,110.554a9.021,9.021,0,0,1-3.081,6.8A9.046,9.046,0,0,1,69.159,101.6a8.464,8.464,0,0,1,1.249-.089,9.046,9.046,0,0,1,9.044,9.042Z" fill="#fff"/>
          </g>
        </g>
        <g id="Layer_4" data-name="Layer 4">
          <rect id="Rectangle_1-2" data-name="Rectangle 1" width="90.72" height="169.92" rx="8.16" transform="translate(216.278 111.578)" fill="none" stroke="#fff" stroke-miterlimit="10" stroke-width="4"/>
          <rect id="Rectangle_2" data-name="Rectangle 2" width="49.08" height="9.84" rx="2.85" transform="translate(237.098 110.138)" fill="#fff"/>
          <path id="Path_19" data-name="Path 19" d="M222.438,119.978l76.03,155.28h-65.59a10.506,10.506,0,0,1-10.44-10.571V119.978Z" fill="#007aff"/>
          <circle id="Ellipse_2" data-name="Ellipse 2" cx="1.53" cy="1.53" r="1.53" transform="translate(243.678 113.528)" fill="#007aff"/>
          <circle id="Ellipse_3" data-name="Ellipse 3" cx="2.138" cy="2.138" r="2.138" transform="translate(276.977 113.1)" fill="#007aff"/>
          <rect id="Rectangle_3" data-name="Rectangle 3" width="21.96" height="1.56" rx="0.78" transform="translate(250.838 114.458)" fill="#007aff"/>
          <path id="Path_20" data-name="Path 20" d="M258.678,172.218v18.51a8.056,8.056,0,0,1-8.03,8.03h-1.69l-2.53,10.71a2.029,2.029,0,0,1-3.59.75l-8.68-11.46h-32.25a8.032,8.032,0,0,1-8.03-8.03v-18.51a8.047,8.047,0,0,1,8.03-8.02h48.74a8.047,8.047,0,0,1,8.03,8.02Z" fill="#fff"/>
          <path id="Path_21" data-name="Path 21" d="M258.678,172.338v18.39a8.056,8.056,0,0,1-8.03,8.03h-1.69l-2.53,10.71a2.029,2.029,0,0,1-3.59.75l-8.68-11.46h-32.25a8.016,8.016,0,0,1-2.31-.34v-18.39a8.056,8.056,0,0,1,8.03-8.03h48.74a8.017,8.017,0,0,1,2.31.34Z" fill="#e6e7e8"/>
          <path id="Path_22" data-name="Path 22" d="M329.4,219.058v18.5a8.056,8.056,0,0,1-8.03,8.03H289.12l-8.68,11.46a2.026,2.026,0,0,1-3.59-.75l-2.53-10.71h-1.69a8.036,8.036,0,0,1-6.56-3.42,7.933,7.933,0,0,1-1.47-4.61v-18.5a8.049,8.049,0,0,1,8.03-8.03h48.74a8.049,8.049,0,0,1,8.03,8.03Z" fill="#e6e7e8"/>
          <path id="Path_23" data-name="Path 23" d="M329.4,222.488v15.07a8.056,8.056,0,0,1-8.03,8.03H289.12l-8.68,11.46a2.026,2.026,0,0,1-3.59-.75l-2.53-10.71h-1.69a8.036,8.036,0,0,1-6.56-3.42v-15.08a8.047,8.047,0,0,1,8.03-8.02h48.74a8,8,0,0,1,6.56,3.421Z" fill="#fff"/>
          <circle id="Ellipse_4" data-name="Ellipse 4" cx="5.16" cy="5.16" r="5.16" transform="translate(205.558 176.378)" fill="#007aff"/>
          <circle id="Ellipse_5" data-name="Ellipse 5" cx="5.16" cy="5.16" r="5.16" transform="translate(221.118 176.378)" fill="#007aff"/>
          <circle id="Ellipse_6" data-name="Ellipse 6" cx="5.16" cy="5.16" r="5.16" transform="translate(235.738 176.378)" fill="#007aff"/>
          <circle id="Ellipse_7" data-name="Ellipse 7" cx="5.16" cy="5.16" r="5.16" transform="translate(277.748 224.121)" fill="#007aff"/>
          <circle id="Ellipse_8" data-name="Ellipse 8" cx="5.16" cy="5.16" r="5.16" transform="translate(293.308 224.121)" fill="#007aff"/>
          <circle id="Ellipse_9" data-name="Ellipse 9" cx="5.16" cy="5.16" r="5.16" transform="translate(307.928 224.121)" fill="#007aff"/>
          <path id="Path_24" data-name="Path 24" d="M301.158,143.738v-21.12s.58-6.72-7.2-6.6" fill="none" stroke="#fff" stroke-linecap="round" stroke-miterlimit="10" stroke-width="1"/>
          <circle id="Ellipse_10" data-name="Ellipse 10" cx="0.547" cy="0.547" r="0.547" transform="translate(300.621 144.738)" fill="#fff"/>
          <line id="Line_5" data-name="Line 5" y1="27.96" transform="translate(221.118 241.418)" fill="none" stroke="#fff" stroke-linecap="round" stroke-miterlimit="10" stroke-width="1"/>
          <circle id="Ellipse_11" data-name="Ellipse 11" cx="0.57" cy="0.57" r="0.57" transform="translate(220.518 239.098)" fill="#fff"/>
        </g>
      </g>
    </g>
  </g>
</svg>
