<svg xmlns="http://www.w3.org/2000/svg" xmlns:xlink="http://www.w3.org/1999/xlink" width="500" height="380" viewBox="0 0 500 380">
  <defs>
    <clipPath id="clip-auth">
      <rect width="500" height="380"/>
    </clipPath>
  </defs>
  <g id="auth" clip-path="url(#clip-auth)">
    <g id="auth-2" data-name="auth" transform="translate(20.203 9.741)">
      <g id="bg" transform="translate(10.781 0)">
        <path id="Path_1" data-name="Path 1" d="M390.791,251.695c-10.09,22.842,4.085,37.966-5.127,50.952-6.085,8.577-17.52,9.433-33.537,11.514-55.474,7.21-48.953,13.933-84.991,16.7-48.784,3.749-47.282-9.6-123.306-15.366-52.961-4.013-77.841.637-90.564-16.7-8.887-12.112-.462-19.085-7.816-44.728-10.017-34.933-31.036-36.318-33.983-62.5-2.534-22.507,10-48.112,29.259-60.127,21.327-13.306,35.924-.6,51.2-13.028,20.5-16.666,1.177-45.169,19.854-77.164,12.667-21.7,39.437-39.223,65.833-41.087C222.14-2.983,230.527,40.9,280.024,42.251c38.728,1.059,58.175-25.132,90.912-12.025,5.364,2.147,18.516,7.413,26.124,20.042,18.346,30.453-17.934,66.555,1.045,92.2,7.581,10.241,14.1,5.464,26.124,19.04,16.158,18.238,22.955,47.8,11.495,59.125-7.154,7.069-16.089,1.761-29.259,11.023-9.7,6.82-13.921,16.073-15.675,20.042Z" transform="translate(-11.142 0)" fill="#007aff" opacity="0.2"/>
        <path id="Path_2" data-name="Path 2" d="M112.841,307.75c-13.57-6.151-19.982-18.531-26.813-34.143a111.628,111.628,0,0,1-9.761-54.712c1.088-13.746,3.3-41.665,23.686-60.127,9.69-8.774,16.984-9.524,23.686-20.711,8.6-14.349,2.327-22.679,9.753-30.064,11.356-11.292,29.657,4.568,52.249-4.677,21-8.592,18.538-27.756,39.709-33.4,15.732-4.2,30.345,2.849,34.136,4.677,19.413,9.361,28.816,28.827,31.349,34.072,5.151,10.666,3.917,14.329,9.056,18.038,9.241,6.67,19.111-.926,38.287-.32,5.779.183,27.839,1.6,44.614,17.022,3.92,3.6,18.3,17.855,18.113,38.081-.154,16.891-13.141,33.833-15.326,36.745-4.516,6.017-8.313,9.257-9.532,16.031-1.621,9,3.148,14.053,4.656,21.381,3.414,16.586-12.359,32.789-18.809,39.417-26.8,27.53-67.614,25.56-70.361,25.387C266.841,318.891,265,308.3,242.069,310.422c-16.991,1.574-23.725,8.107-42.5,6.681-12.255-.931-12.648-3.964-27.19-6.927-31.781-6.477-41.932,5.556-59.543-2.426Z" transform="translate(-13.244 -4.947)" fill="#007aff" opacity="0.9"/>
      </g>
      <g id="lines" transform="translate(0 342.836)">
        <ellipse id="Ellipse_1" data-name="Ellipse 1" cx="229.797" cy="8.841" rx="229.797" ry="8.841" fill="#e6e7e8"/>
      </g>
      <g id="others" transform="translate(25.768 21.374)">
        <g id="Group_1" data-name="Group 1" transform="translate(0 209.574)" opacity="0.9">
          <line id="Line_1" data-name="Line 1" x2="10.243" y2="10.838" fill="none" stroke="#007aff" stroke-linecap="round" stroke-miterlimit="10" stroke-width="3"/>
          <line id="Line_2" data-name="Line 2" y1="10.838" x2="10.243" fill="none" stroke="#007aff" stroke-linecap="round" stroke-miterlimit="10" stroke-width="3"/>
        </g>
        <g id="Group_2" data-name="Group 2" transform="translate(304.864 22.427)">
          <path id="Path_3" data-name="Path 3" d="M342.912,73.57A4.439,4.439,0,0,0,341.8,77.5a7.451,7.451,0,0,0,2.133,4.039,8.9,8.9,0,0,0,8.661,1.708A57.2,57.2,0,0,0,361,82.369c1.944-.348,3.778-.778,5.506-1.266A58.255,58.255,0,0,0,378.166,76.4c4.662-3.651,5.834-9.468,3.383-13.321-2.327-3.674-7.063-4.189-7.71-4.252-1.585-6.393-6.483-11-12.058-11.562a13.3,13.3,0,0,0-8.221,2.072,17.782,17.782,0,0,0-4.444,3.274c-.045.041-.086.083-.127.124a17.436,17.436,0,0,0-4.572,9.031,5.83,5.83,0,0,0-2.487,3.279c-.64,2.575.983,5.6,4.136,7.21a4.717,4.717,0,0,0-3.156,1.316Z" transform="translate(-341.716 -47.205)" fill="#e6e7e8"/>
          <path id="Path_4" data-name="Path 4" d="M342.912,73.99a4.439,4.439,0,0,0-1.109,3.928,7.451,7.451,0,0,0,2.133,4.039,8.9,8.9,0,0,0,8.661,1.708A57.2,57.2,0,0,0,361,82.789c1.944-.348,3.778-.778,5.506-1.266,4.008-3.661,4.916-9.027,2.6-12.661-2.327-3.674-7.063-4.189-7.711-4.246-1.585-6.4-6.482-11-12.057-11.568l-.23-.019c-.045.041-.086.083-.127.124a17.436,17.436,0,0,0-4.572,9.031,5.83,5.83,0,0,0-2.487,3.279c-.64,2.575.983,5.6,4.136,7.21a4.717,4.717,0,0,0-3.156,1.316Z" transform="translate(-341.716 -47.625)" fill="#fff"/>
        </g>
        <g id="Group_3" data-name="Group 3" transform="translate(36.258 249.898)">
          <path id="Path_5" data-name="Path 5" d="M106.3,321.1c-3.17,4.137-9.092,5.878-14.646,4.186a44.043,44.043,0,0,1-10.735.186,43.193,43.193,0,0,1-9.172-1.994c-3.481-.758-6.343-2.992-7.294-5.949a7.339,7.339,0,0,1-.352-2.312,8.879,8.879,0,0,1,1.34-4.521,11.273,11.273,0,0,1,5.83-4.709c.015-.34.044-.678.083-1.007a14.636,14.636,0,0,1,1.854-5.681c2.876-5.014,8.393-7.7,12.922-6.764A10.408,10.408,0,0,1,91.8,296.02a12.8,12.8,0,0,1,1.359,1.871,14.733,14.733,0,0,1,2.058,6.716,8.343,8.343,0,0,1,8.213-.778,7.419,7.419,0,0,1,1.769,1.124,7.691,7.691,0,0,1,.935.947,8.475,8.475,0,0,1,1.814,4.034c.2.582,2.073,6.326-1.64,11.168Z" transform="translate(-64.105 -292.353)" fill="#e6e7e8"/>
          <path id="Path_6" data-name="Path 6" d="M103.894,313.763c-3.172,4.141-9.092,5.878-14.646,4.186a43.525,43.525,0,0,1-19.909-1.8A11.1,11.1,0,0,1,64.753,314a8.59,8.59,0,0,1,.714-3.3,11.273,11.273,0,0,1,5.83-4.709c.015-.34.044-.678.083-1.007.178-.074.36-.148.544-.213a14.883,14.883,0,0,1,1.31-5.467c2.876-5.014,8.393-7.7,12.922-6.764a10.408,10.408,0,0,1,5.662,3.483,12.8,12.8,0,0,1,1.359,1.871,14.733,14.733,0,0,1,2.058,6.716,8.343,8.343,0,0,1,8.213-.778,7.419,7.419,0,0,1,1.769,1.124,7.692,7.692,0,0,1,.935.947,11.5,11.5,0,0,1-2.257,7.864Z" transform="translate(-64.126 -292.353)" fill="#fff"/>
        </g>
        <g id="Group_4" data-name="Group 4" transform="translate(53.366 68.829)">
          <path id="Path_7" data-name="Path 7" d="M130.214,126.225a9.85,9.85,0,0,1-4.1,3.935c-4.878,2.443-9.979-.3-10.4-.524a26.21,26.21,0,0,1-12.311,5.51,26.735,26.735,0,0,1-10.293-.361c-.228-.055-.444-.109-.65-.164-8.059-1.585-12.254-9.27-10.123-14.954,1.687-4.493,7.284-7.636,13.406-6.821a14.886,14.886,0,0,1,7.871-13.959,16.41,16.41,0,0,1,12.647-.732,17.457,17.457,0,0,1,5.227,4.258,16.459,16.459,0,0,1,1.693,2.5,16,16,0,0,1,1.932,6.98c.393.175,5.825,2.717,6.5,8.177a9.745,9.745,0,0,1-1.4,6.16Z" transform="translate(-81.787 -97.213)" fill="#e6e7e8"/>
          <path id="Path_8" data-name="Path 8" d="M130.509,126.62a9.85,9.85,0,0,1-4.1,3.935c-4.878,2.443-9.979-.3-10.4-.524a26.21,26.21,0,0,1-12.311,5.51,26.735,26.735,0,0,1-10.293-.361,10.548,10.548,0,0,1-1.966-10.046c1.682-4.493,7.284-7.636,13.406-6.821a14.9,14.9,0,0,1,7.871-13.965,15.442,15.442,0,0,1,9.068-1.541,16.459,16.459,0,0,1,1.693,2.5,16,16,0,0,1,1.932,6.98c.393.175,5.825,2.717,6.5,8.177a9.745,9.745,0,0,1-1.4,6.16Z" transform="translate(-82.082 -97.607)" fill="#fff"/>
        </g>
        <g id="Group_5" data-name="Group 5" transform="translate(289.527 270.776)">
          <path id="Path_9" data-name="Path 9" d="M346.062,324.538a9.837,9.837,0,0,1-8.709,9.6,10.52,10.52,0,0,1-1.389.09,9.9,9.9,0,0,1-10.1-9.69,9.479,9.479,0,0,1,3.436-7.274,10.283,10.283,0,0,1,6.663-2.412,9.9,9.9,0,0,1,10.1,9.684Z" transform="translate(-325.865 -314.853)" fill="#e6e7e8"/>
          <path id="Path_10" data-name="Path 10" d="M340.794,327.034a9.5,9.5,0,0,1-3.441,7.284,10.52,10.52,0,0,1-1.389.09,9.9,9.9,0,0,1-10.1-9.69,9.479,9.479,0,0,1,3.436-7.274,10.122,10.122,0,0,1,11.494,9.59Z" transform="translate(-325.865 -315.033)" fill="#fff"/>
        </g>
        <g id="Group_6" data-name="Group 6" transform="translate(378.807 175.412)">
          <path id="Path_11" data-name="Path 11" d="M434.625,220.081a8.043,8.043,0,0,1-8.2,7.873,8.44,8.44,0,0,1-4-1,7.621,7.621,0,0,1-1.988-5.135,8.047,8.047,0,0,1,8.21-7.873,8.386,8.386,0,0,1,4,1,7.639,7.639,0,0,1,1.988,5.135Z" transform="translate(-418.211 -212.213)" fill="#007aff" opacity="0.9"/>
          <path id="Path_12" data-name="Path 12" d="M434.551,219.947a8.043,8.043,0,0,1-8.2,7.873,8.44,8.44,0,0,1-4-1,7.827,7.827,0,0,1-4.2-6.873,8.043,8.043,0,0,1,8.21-7.869,8.317,8.317,0,0,1,6.217,2.734,7.639,7.639,0,0,1,1.988,5.135Z" transform="translate(-418.137 -212.078)" fill="#007aff" opacity="0.8"/>
        </g>
        <g id="Group_7" data-name="Group 7" transform="translate(120.859)">
          <path id="Path_13" data-name="Path 13" d="M168.97,31.593a8.5,8.5,0,0,1-8.673,8.318,8.84,8.84,0,0,1-5.474-1.867,7.934,7.934,0,0,1-.769-3.418,8.5,8.5,0,0,1,8.673-8.318,8.865,8.865,0,0,1,5.479,1.867,8,8,0,0,1,.765,3.418Z" transform="translate(-151.623 -23.271)" fill="#007aff" opacity="0.6"/>
          <path id="Path_14" data-name="Path 14" d="M168.889,31.357a8.5,8.5,0,0,1-8.673,8.318,8.84,8.84,0,0,1-5.474-1.867,8.178,8.178,0,0,1-3.2-6.451,8.5,8.5,0,0,1,8.673-8.322,8.7,8.7,0,0,1,7.908,4.9,8,8,0,0,1,.765,3.418Z" transform="translate(-151.542 -23.035)" fill="#007aff" opacity="0.6"/>
        </g>
        <g id="Group_8" data-name="Group 8" transform="translate(298.487 188.777)">
          <path id="Path_15" data-name="Path 15" d="M335.969,243.208a5.679,5.679,0,0,0,2.366,2.269,6.871,6.871,0,0,0,5.993-.3,15.108,15.108,0,0,0,7.1,3.176,15.413,15.413,0,0,0,5.934-.208q.2-.047.374-.095c4.646-.914,7.064-5.344,5.835-8.621-.972-2.59-4.2-4.4-7.728-3.932a8.582,8.582,0,0,0-4.538-8.048,9.462,9.462,0,0,0-7.291-.422A10.059,10.059,0,0,0,341,229.479a9.425,9.425,0,0,0-.976,1.44,9.214,9.214,0,0,0-1.114,4.023c-.226.1-3.357,1.566-3.745,4.714a5.617,5.617,0,0,0,.8,3.551Z" transform="translate(-335.125 -226.482)" fill="#e6e7e8"/>
          <path id="Path_16" data-name="Path 16" d="M335.969,243.435a5.679,5.679,0,0,0,2.366,2.269,6.871,6.871,0,0,0,5.993-.3,15.108,15.108,0,0,0,7.1,3.176,15.413,15.413,0,0,0,5.934-.208,6.082,6.082,0,0,0,1.134-5.791c-.97-2.59-4.2-4.4-7.728-3.932a8.586,8.586,0,0,0-4.538-8.05,8.908,8.908,0,0,0-5.228-.889,9.425,9.425,0,0,0-.976,1.44,9.214,9.214,0,0,0-1.114,4.023c-.226.1-3.357,1.566-3.745,4.714a5.617,5.617,0,0,0,.8,3.551Z" transform="translate(-335.125 -226.709)" fill="#fff"/>
        </g>
        <g id="Group_9" data-name="Group 9" transform="translate(325.405 114.775)" opacity="0.9">
          <line id="Line_3" data-name="Line 3" x2="7.895" y2="8.356" fill="none" stroke="#fff" stroke-linecap="round" stroke-miterlimit="10" stroke-width="3"/>
          <line id="Line_4" data-name="Line 4" y1="8.356" x2="7.895" fill="none" stroke="#fff" stroke-linecap="round" stroke-miterlimit="10" stroke-width="3"/>
        </g>
      </g>
      <g id="finger" transform="translate(175.166 144.133)">
        <path id="Path_17" data-name="Path 17" d="M201.2,165.726s40.754-23.383,80.114,0" transform="translate(-181.692 -155.334)" fill="none" stroke="#fff" stroke-linecap="round" stroke-miterlimit="10" stroke-width="10"/>
        <path id="Path_18" data-name="Path 18" d="M181.038,207.923a92.054,92.054,0,0,1,32.8-25.938c11.066-5.134,23.59-7.672,35.79-6.226,20.676,2.45,38.165,15.792,52.3,30.473" transform="translate(-181.038 -156.778)" fill="none" stroke="#fff" stroke-linecap="round" stroke-miterlimit="10" stroke-width="10"/>
        <path id="Path_19" data-name="Path 19" d="M190.651,264.707c-9.546-25.621,3.1-51.341,27-64.545,26.086-14.41,60.353-3.088,72.619,22.789,3.18,6.709,5.968,14.308,5.939,21.76-.017,4.437-1.376,9.035-4.617,12.2a16.488,16.488,0,0,1-11.62,4.309c-9.9-.1-17.139-6.453-20.006-15.225-2.358-7.213-5.443-14.506-13.322-17.524a14.75,14.75,0,0,0-10.843-.021c-18.73,7.9-8.681,33.4-.333,44.493a68.353,68.353,0,0,0,23.454,19.486" transform="translate(-181.246 -158.11)" fill="none" stroke="#fff" stroke-linecap="round" stroke-miterlimit="10" stroke-width="10"/>
        <path id="Path_20" data-name="Path 20" d="M243.863,248.254s.518,36.411,41.968,35.074" transform="translate(-183.076 -162.034)" fill="none" stroke="#fff" stroke-linecap="round" stroke-miterlimit="10" stroke-width="10"/>
        <path id="Path_21" data-name="Path 21" d="M230.241,297.267c-18.256-20.286-33.517-51.641-10.424-74.254a35.922,35.922,0,0,1,24.134-10.126c20.1-.366,33.2,14.9,35.5,32.815" transform="translate(-181.917 -159.484)" fill="none" stroke="#fff" stroke-linecap="round" stroke-miterlimit="10" stroke-width="10"/>
        <ellipse id="Ellipse_2" data-name="Ellipse 2" cx="4.166" cy="3.996" rx="4.166" ry="3.996" transform="translate(105.829 13.634)" fill="#fff"/>
        <ellipse id="Ellipse_3" data-name="Ellipse 3" cx="4.166" cy="3.996" rx="4.166" ry="3.996" transform="translate(86.282 133.788)" fill="#fff"/>
        <ellipse id="Ellipse_4" data-name="Ellipse 4" cx="4.166" cy="3.996" rx="4.166" ry="3.996" transform="translate(11.173 113.339)" fill="#fff"/>
      </g>
    </g>
  </g>
</svg>
