<svg xmlns="http://www.w3.org/2000/svg" xmlns:xlink="http://www.w3.org/1999/xlink" width="600" height="470" viewBox="0 0 600 470">
  <defs>
    <clipPath id="clip-login">
      <rect width="600" height="470"/>
    </clipPath>
  </defs>
  <g id="login" clip-path="url(#clip-login)">
    <g id="Fingerprint-rafiki" transform="translate(0 -61.782)">
      <g id="freepik--background-complete--inject-8" transform="translate(0 55)">
        <rect id="Rectangle_1" data-name="Rectangle 1" width="41.112" height="0.31" transform="translate(517.356 426.38)" fill="#ebebeb"/>
        <rect id="Rectangle_2" data-name="Rectangle 2" width="10.787" height="0.31" transform="translate(400.362 429.756)" fill="#ebebeb"/>
        <rect id="Rectangle_3" data-name="Rectangle 3" width="23.821" height="0.31" transform="translate(492.294 414.861)" fill="#ebebeb"/>
        <rect id="Rectangle_4" data-name="Rectangle 4" width="53.612" height="0.31" transform="translate(65.12 416.946)" fill="#ebebeb"/>
        <rect id="Rectangle_5" data-name="Rectangle 5" width="7.858" height="0.31" transform="translate(129.792 416.946)" fill="#ebebeb"/>
        <rect id="Rectangle_6" data-name="Rectangle 6" width="116.287" height="0.31" transform="translate(163.196 422.184)" fill="#ebebeb"/>
        <path id="Path_1" data-name="Path 1" d="M284.971,406.045H45.286a7.088,7.088,0,0,1-7.076-7.088V62.026A7.088,7.088,0,0,1,45.286,55H284.971a7.088,7.088,0,0,1,7.088,7.088V398.957A7.088,7.088,0,0,1,284.971,406.045ZM45.286,55.248a6.778,6.778,0,0,0-6.765,6.778V398.957a6.778,6.778,0,0,0,6.765,6.778H284.971a6.79,6.79,0,0,0,6.778-6.778V62.026a6.79,6.79,0,0,0-6.778-6.778Z" transform="translate(9.221 -55)" fill="#ebebeb"/>
        <path id="Path_2" data-name="Path 2" d="M501.286,406.045h-239.7a7.1,7.1,0,0,1-7.088-7.088V62.026A7.1,7.1,0,0,1,261.588,55h239.7a7.088,7.088,0,0,1,7.063,7.026V398.957A7.088,7.088,0,0,1,501.286,406.045Zm-239.7-350.8a6.79,6.79,0,0,0-6.778,6.778V398.957a6.79,6.79,0,0,0,6.778,6.778h239.7a6.79,6.79,0,0,0,6.778-6.778V62.026a6.79,6.79,0,0,0-6.778-6.778Z" transform="translate(61.415 -55)" fill="#ebebeb"/>
        <rect id="Rectangle_7" data-name="Rectangle 7" width="620.659" height="0.31" transform="translate(0 406.407)" fill="#ebebeb"/>
        <rect id="Rectangle_8" data-name="Rectangle 8" width="45.172" height="33.23" rx="2.38" transform="translate(334.312 164.338)" fill="#e0e0e0"/>
        <rect id="Rectangle_9" data-name="Rectangle 9" width="20.32" height="11.271" transform="translate(337.626 167.205)" fill="#ebebeb"/>
        <rect id="Rectangle_10" data-name="Rectangle 10" width="3.848" height="2.123" transform="translate(337.626 181.89)" fill="#ebebeb"/>
        <rect id="Rectangle_11" data-name="Rectangle 11" width="3.848" height="2.123" transform="translate(337.626 185.453)" fill="#ebebeb"/>
        <rect id="Rectangle_12" data-name="Rectangle 12" width="3.848" height="2.123" transform="translate(337.626 189.015)" fill="#ebebeb"/>
        <rect id="Rectangle_13" data-name="Rectangle 13" width="3.848" height="2.123" transform="translate(337.626 192.578)" fill="#ebebeb"/>
        <rect id="Rectangle_14" data-name="Rectangle 14" width="3.848" height="2.123" transform="translate(343.125 181.89)" fill="#ebebeb"/>
        <rect id="Rectangle_15" data-name="Rectangle 15" width="3.848" height="2.123" transform="translate(343.125 185.453)" fill="#ebebeb"/>
        <rect id="Rectangle_16" data-name="Rectangle 16" width="3.848" height="2.123" transform="translate(343.125 189.015)" fill="#ebebeb"/>
        <rect id="Rectangle_17" data-name="Rectangle 17" width="3.848" height="2.123" transform="translate(343.125 192.578)" fill="#ebebeb"/>
        <rect id="Rectangle_18" data-name="Rectangle 18" width="3.848" height="2.123" transform="translate(348.612 181.89)" fill="#ebebeb"/>
        <rect id="Rectangle_19" data-name="Rectangle 19" width="3.848" height="2.123" transform="translate(348.612 185.453)" fill="#ebebeb"/>
        <rect id="Rectangle_20" data-name="Rectangle 20" width="3.848" height="2.123" transform="translate(348.612 189.015)" fill="#ebebeb"/>
        <rect id="Rectangle_21" data-name="Rectangle 21" width="3.848" height="2.123" transform="translate(348.612 192.578)" fill="#ebebeb"/>
        <rect id="Rectangle_22" data-name="Rectangle 22" width="3.848" height="2.123" transform="translate(354.098 181.89)" fill="#ebebeb"/>
        <rect id="Rectangle_23" data-name="Rectangle 23" width="3.848" height="2.123" transform="translate(354.098 185.453)" fill="#ebebeb"/>
        <rect id="Rectangle_24" data-name="Rectangle 24" width="3.848" height="2.123" transform="translate(354.098 189.015)" fill="#ebebeb"/>
        <rect id="Rectangle_25" data-name="Rectangle 25" width="3.848" height="2.123" transform="translate(354.098 192.578)" fill="#ebebeb"/>
        <rect id="Rectangle_26" data-name="Rectangle 26" width="11.073" height="30.363" transform="translate(365.233 164.338)" fill="#f0f0f0"/>
        <rect id="Rectangle_27" data-name="Rectangle 27" width="11.073" height="12.624" transform="translate(365.233 172.841)" fill="#e6e6e6"/>
        <path id="Path_3" data-name="Path 3" d="M294.23,205.756l2.11-6.976h7.423l1.539,6.976Z" transform="translate(71.003 -20.303)" fill="#e0e0e0"/>
        <path id="Path_4" data-name="Path 4" d="M475.655,80.54V455.989H395.838l.149-.621h67.788V91.153h-140.9V455.368h43.607l29.357.621H312.26V80.54Z" transform="translate(75.354 -48.837)" fill="#ebebeb"/>
        <path id="Path_5" data-name="Path 5" d="M461.712,89.09V453.3H393.924l-.149.621-29.357-.621H320.81V89.09Z" transform="translate(77.417 -46.773)" fill="#f0f0f0"/>
        <rect id="Rectangle_28" data-name="Rectangle 28" width="140.902" height="364.227" transform="translate(398.227 42.317)" fill="#f5f5f5"/>
        <path id="Path_6" data-name="Path 6" d="M453.234,89.09V187.4L385.446,453.3l-.149.621L355.94,453.3,450.007,89.09Z" transform="translate(85.895 -46.773)" fill="#fff"/>
        <rect id="Rectangle_29" data-name="Rectangle 29" width="16.522" height="54.382" transform="translate(398.227 185.974)" fill="#fff"/>
        <path id="Path_7" data-name="Path 7" d="M414.877,89.09,320.81,453.317l29.345.608L443.167,89.09Z" transform="translate(77.417 -46.773)" fill="#fff"/>
        <path id="Path_8" data-name="Path 8" d="M261.3,352.435a.348.348,0,0,1-.36-.348c-1.092-32.349,8.764-44.687,8.863-44.812a.362.362,0,0,1,.559.459c-.1.112-9.782,12.289-8.689,44.327a.348.348,0,0,1-.348.372Z" transform="translate(62.948 5.847)" fill="#e0e0e0"/>
        <path id="Path_9" data-name="Path 9" d="M264.983,349.121h0a.36.36,0,0,1-.323-.4c.869-9.459,4.258-16.683,10.092-21.475,9.086-7.448,21.1-6.318,21.214-6.306a.362.362,0,1,1-.074.72c-.112,0-11.83-1.13-20.693,6.145-5.673,4.667-8.975,11.73-9.819,20.991a.348.348,0,0,1-.4.323Z" transform="translate(63.867 9.16)" fill="#e0e0e0"/>
        <path id="Path_10" data-name="Path 10" d="M285.843,325.4c-1.75-3.525-16.274-5.933-7.957-13.58s8.28,8.751,11.979,8.689c5.176-.087,4.171-22.021,12.711-16.361s-8.429,14.61-5.71,18.62c2.483,3.724,17.565-8.317,17.9-.956s-16.05,1.912-17.105,6.343c-.807,3.463,15.343,6.6,8.18,11.619s-9.459-10.191-13.406-9.211c-2.992.745,1.005,13.232-5.027,11.284S287.693,329.114,285.843,325.4Z" transform="translate(66.443 4.899)" fill="#f0f0f0"/>
        <path id="Path_11" data-name="Path 11" d="M259.915,355.893a.372.372,0,0,1-.36-.335c-2.88-28.066-15.5-45.321-15.665-45.445a.372.372,0,0,1,0-.509.36.36,0,0,1,.509.074c.137.174,12.91,17.515,15.814,45.854a.36.36,0,0,1-.323.4Z" transform="translate(58.831 6.423)" fill="#e0e0e0"/>
        <path id="Path_12" data-name="Path 12" d="M253.625,326.288c-4.382,3.649-2.93,24.9-16.472,15.752s9.509-14.585,8.267-19.774c-1.85-7.274-32.4,1.465-27.309-12.413s23.386,7.013,28.19,1.825c4.407-4.754-17.577-21.971-7.324-24.9s8.044,21.971,14.648,21.971c5.139,0,4.183-23.8,13.654-15.38s-11.172,16.721-8.5,21.946c2.061,3.972,18.309-5.834,17.577,3.327S258.23,322.464,253.625,326.288Z" transform="translate(52.496 0.874)" fill="#e6e6e6"/>
        <path id="Path_13" data-name="Path 13" d="M281.825,375.918,284.792,341H242.5l2.979,34.943a18.235,18.235,0,0,0,18.173,16.7h0a18.235,18.235,0,0,0,18.173-16.721Z" transform="translate(58.519 14.017)" fill="#f5f5f5"/>
        <path id="Path_14" data-name="Path 14" d="M270.346,323.928c4.382,3.649,2.93,24.9,16.472,15.752s-9.558-14.585-8.23-19.774c1.85-7.274,32.4,1.465,27.309-12.413s-23.386,7.013-28.19,1.825c-4.419-4.754,17.577-21.971,7.324-24.9s-8.044,21.971-14.648,21.971c-5.139,0-4.183-23.8-13.655-15.38s11.172,16.721,8.5,21.947c-2.061,3.972-18.309-5.834-17.577,3.327S265.741,320.1,270.346,323.928Z" transform="translate(59.758 0.304)" fill="#f5f5f5"/>
        <rect id="Rectangle_30" data-name="Rectangle 30" width="170.867" height="170.867" transform="translate(48.287 234.609)" fill="#ebebeb"/>
        <rect id="Rectangle_31" data-name="Rectangle 31" width="146.053" height="157.486" transform="translate(61.358 247.68)" fill="#fafafa"/>
        <rect id="Rectangle_32" data-name="Rectangle 32" width="4.94" height="17.9" transform="translate(70.159 313.147)" fill="#e6e6e6"/>
        <rect id="Rectangle_33" data-name="Rectangle 33" width="4.94" height="35.167" transform="translate(67.689 304.83)" fill="#fff"/>
        <rect id="Rectangle_34" data-name="Rectangle 34" width="7.398" height="5.338" transform="translate(67.689 304.83)" fill="#fff"/>
        <rect id="Rectangle_35" data-name="Rectangle 35" width="7.398" height="5.338" transform="translate(67.689 334.647)" fill="#fff"/>
      </g>
      <g id="freepik--Shadow--inject-8" transform="translate(69.65 488.679)">
        <ellipse id="freepik--path--inject-8" cx="240.679" cy="14.052" rx="240.679" ry="14.052" fill="#f5f5f5"/>
      </g>
      <g id="freepik--Character--inject-8" transform="translate(367.144 154.741)">
        <g id="freepik--group--inject-8">
          <path id="Path_15" data-name="Path 15" d="M423.393,180.087a12.3,12.3,0,0,1-8.478,7.969h-.062a43.585,43.585,0,0,1-5.2.968l-.857.112c-5.934.7-12.016.559-17.962,1.415l-.894.137a64.479,64.479,0,0,1-8.95,1.167,18.158,18.158,0,0,1-2.011-.074,12.413,12.413,0,0,1-7.262-2.805c-2.619-2.334-3.724-5.809-4.407-9.31q2.681-.819,5.946-1.874c15.79-5.189-1.44-13.878,4.146-27.756,7.808-19.414,39.722-18.049,39.176-4.8C426.57,147.726,428,166.854,423.393,180.087Z" transform="translate(-278.506 -135.351)" fill="#263238"/>
          <path id="Path_16" data-name="Path 16" d="M378.7,154.258c-.732,3.029-.968,6.207-2.061,9.111s-3.289,5.685-6.343,6.306c4.593,2.036,10.278-.211,13.381-4.158s4.1-9.2,4.2-14.238c0-1.167.211-2.57-.608-3.389C381.4,142.055,379.424,151.229,378.7,154.258Z" transform="translate(-277.785 -132.784)" fill="#263238"/>
          <path id="Path_17" data-name="Path 17" d="M389.647,196.008l-1.241,1.117-.981.869c-.72.645-1.428,1.241-2.16,1.812-1.452,1.154-2.917,2.309-4.419,3.376-.31.211-.621.434-.919.621a10.828,10.828,0,0,1-.919.621l-.732.5c-2.259,1.49-4.543,2.88-6.889,4.2q-2.557,1.4-5.176,2.607c-1.639.77-3.314,1.477-4.965,2.123l-2.656.956c-.906.31-1.812.559-2.694.857l-1.365.41-1.477.372c-.968.223-1.949.447-2.892.6a83.515,83.515,0,0,1-22.257.223c-3.6-.385-7.175-.919-10.7-1.527-2.483-.434-4.965-.943-7.448-1.552-1.03-.236-2.073-.509-3.116-.794l1.08-5.561,2.979.261c2.483.2,4.9.385,7.336.5,3.438.161,6.877.348,10.3.348a91.921,91.921,0,0,0,19.774-1.725c.757-.174,1.5-.385,2.234-.6l1.068-.348,1.142-.434c.745-.3,1.49-.521,2.284-.881l2.2-.993a97.391,97.391,0,0,0,8.689-4.568q2.923-1.732,5.76-3.724l1.13-.794c.223-.149.459-.31.683-.484l.72-.509.223-.161c1.241-.906,2.483-1.874,3.724-2.843l1.887-1.564,1.75-1.514,5.884,6.058Z" transform="translate(-293.147 -122.697)" fill="#ffc3bd"/>
          <path id="Path_18" data-name="Path 18" d="M313.085,205.118,302,201.68l2.023,11.023s5.933,0,8.764-3.463Z" transform="translate(-294.267 -119.345)" fill="#ffc3bd"/>
          <path id="Path_19" data-name="Path 19" d="M295.77,203.939l2.11,7.175,7.671,1.589-2.023-11.023Z" transform="translate(-295.77 -119.345)" fill="#ffc3bd"/>
          <path id="Path_20" data-name="Path 20" d="M303.164,205.964a12.922,12.922,0,0,1-1.874-6.43c.112-2.954,1.788-2.743,1.788-2.743s-.31,3.513,4.283,9.434l.112.161Z" transform="translate(-294.438 -120.526)" fill="#ffc3bd"/>
          <path id="Path_21" data-name="Path 21" d="M384.913,194.575c-.956,2.88-4.543,5.574-8.3,7.7a69.391,69.391,0,0,1-8.937,4.171l-1.005.372-.447-.77-5.648-9.993-.931-1.651.819-.832a83.167,83.167,0,0,1,12.413-10.241c2.334-1.415,4.494-2.272,5.971-1.924C385.608,182.882,386.825,188.915,384.913,194.575Z" transform="translate(-280.357 -124.256)" fill="#407bff"/>
          <path id="Path_22" data-name="Path 22" d="M384.913,194.575c-.956,2.88-4.543,5.574-8.3,7.7a69.391,69.391,0,0,1-8.937,4.171l-1.005.372-.447-.77-5.648-9.993-.931-1.651.819-.832a83.167,83.167,0,0,1,12.413-10.241c2.334-1.415,4.494-2.272,5.971-1.924C385.608,182.882,386.825,188.915,384.913,194.575Z" transform="translate(-280.357 -124.256)" opacity="0.3"/>
          <path id="Path_23" data-name="Path 23" d="M367.871,204.068a.968.968,0,0,1-.5,1.142,1,1,0,0,1-1.3-.335l-.385-.708-5.6-10.005-.993-1.775a.993.993,0,0,1,.385-1.353h0a1.043,1.043,0,0,1,.248-.1,1.018,1.018,0,0,1,.919.261,1.067,1.067,0,0,1,.174.223l.881,1.589,5.623,10.042.472.844A.963.963,0,0,0,367.871,204.068Z" transform="translate(-280.519 -121.944)" fill="#3636a4"/>
          <path id="Path_24" data-name="Path 24" d="M425.688,180.759c3.96,1.825,4.444,2.867,3.823,5.735-1.241,5.549-2.21,10.464-3.029,14.9-.2,1.068-.385,2.11-.571,3.116a3.245,3.245,0,0,1-.1.571h0a2.781,2.781,0,0,1-.112.559c-.037.186-.1.6-.161.881-3.91,9.012-5.511,19.973-4.506,36.122.087,1.241.1,2.483.161,3.724H401.842l-15.516.1h-6.418c-.112-.7-.223-1.353-.335-2.023h0c-1.142-6.753-2.085-12.8-2.88-18.16q-.67-4.6-1.241-8.565s-6.629-8.18-4.208-13.2c1.428-2.942,2.085-20.941,2.334-21.723s.459-.77.459-.77c1.241-.261,2.483-.521,3.662-.745q5.425-1.1,10.9-1.837c1.241-.174,2.545-.335,3.823-.472a136.036,136.036,0,0,1,15.094-.348h.943c1.241,0,2.483.1,3.724.174,1.465.074,2.93.2,4.382.323a56.743,56.743,0,0,1,5.822.608Z" transform="translate(-277.685 -124.926)" fill="#3636a4"/>
          <path id="Path_25" data-name="Path 25" d="M401.881,161.14c-1.043,6.393-1.887,18.074,2.706,22.158,0,0-2.359,13.779-13.977,15.864-5.611-1.415-5.76-15.181-5.76-15.181,6.976-1.949,4.643-8.925,5.139-15.988Z" transform="translate(-274.273 -129.128)" fill="#ffc3bd"/>
          <path id="Path_26" data-name="Path 26" d="M387.89,161.14c1.241,5.065,2.483,13.555.7,18.98,3.724-.782,9.235-3.724,10.005-7.013a41.51,41.51,0,0,0,.137-6.691Z" transform="translate(-273.54 -129.128)" opacity="0.2"/>
          <path id="Path_27" data-name="Path 27" d="M411.363,157.629c-1.4,10.539-1.763,15.032-7.448,20.085-8.615,7.609-21.251,3.587-23.039-7.138-1.614-9.682.931-25.286,11.594-28.774a14.523,14.523,0,0,1,18.93,15.827Z" transform="translate(-275.34 -133.971)" fill="#ffc3bd"/>
          <path id="Path_28" data-name="Path 28" d="M409.188,145.474c-6.492,7.113-27.11,8.441-30.238,6.48,6.331-8.826,16.137-13.816,21.661-12.661a14.586,14.586,0,0,1,8.577,6.182Z" transform="translate(-275.697 -134.44)" fill="#263238"/>
          <path id="Path_29" data-name="Path 29" d="M406.921,143.3h-.087l-.174.236Z" transform="translate(-269.01 -133.433)" fill="#263238"/>
          <path id="Path_30" data-name="Path 30" d="M407.036,143.17l-.186.161A.248.248,0,0,0,407.036,143.17Z" transform="translate(-268.964 -133.464)" fill="#263238"/>
          <path id="Path_31" data-name="Path 31" d="M406.834,143.314v-.074l-.174.074Z" transform="translate(-269.01 -133.448)" fill="#263238"/>
          <path id="Path_32" data-name="Path 32" d="M407.5,137.68a6.778,6.778,0,0,1-.658,6.9,3.9,3.9,0,0,0,.658-6.9Z" transform="translate(-268.967 -134.789)" fill="#263238"/>
          <path id="Path_33" data-name="Path 33" d="M409.426,163.861a7.771,7.771,0,0,1-4.965,3.327c-2.681.509-3.8-1.924-2.867-4.332.832-2.185,3.24-4.965,5.822-4.506a3.513,3.513,0,0,1,2.594,4.22A3.563,3.563,0,0,1,409.426,163.861Z" transform="translate(-270.311 -129.813)" fill="#ffc3bd"/>
          <path id="Path_34" data-name="Path 34" d="M401.333,145.265c-1.589,1.874-1.428,4.556-1.39,7.013.1,7.2.956,16.236-4.543,19.389,6.5-1.812,11.706-4.878,15.02-10.762,2.619-4.655,2.483-7.448.5-12.413C409.427,144.744,404.946,141.044,401.333,145.265Z" transform="translate(-271.728 -133.412)" fill="#263238"/>
          <path id="Path_35" data-name="Path 35" d="M407.77,186.13s-.447,19.352,1.241,27.93,3.016,6.442,3.016,6.442.832-13.319,2.483-17.031S407.77,186.13,407.77,186.13Z" transform="translate(-268.755 -123.098)" opacity="0.1"/>
          <path id="Path_36" data-name="Path 36" d="M425.317,199.345c-.112,1.316-.186,2.917-.261,4.394s-.112,3.029-.112,4.543c0,3.041,0,6.095.236,9.111a93.826,93.826,0,0,0,2.768,17.7c.4,1.378.807,2.83,1.241,4.158s1.03,2.706,1.614,4.084c1.241,2.756,2.57,5.561,3.985,8.342,2.843,5.574,5.859,11.172,8.851,16.758l-4.767,3.352a159.317,159.317,0,0,1-11.941-15.541c-1.85-2.706-3.612-5.487-5.251-8.466-.819-1.49-1.614-3-2.334-4.667s-1.241-3.252-1.862-4.891a87.027,87.027,0,0,1-4-19.973,97.623,97.623,0,0,1-.447-10.079c0-1.688,0-3.339.124-5.027s.186-3.3.4-5.164Z" transform="translate(-267.471 -120.238)" fill="#ffc3bd"/>
          <path id="Path_37" data-name="Path 37" d="M437.381,253.782l8.069,5.648-9.881,6.306s-4.382-5.958-2.421-12.016Z" transform="translate(-262.74 -106.787)" fill="#ffc3bd"/>
          <path id="Path_38" data-name="Path 38" d="M447.617,267.617l-8.466,4.469-4.121-7.448,9.844-6.318Z" transform="translate(-262.164 -105.677)" fill="#ffc3bd"/>
          <path id="Path_39" data-name="Path 39" d="M428.217,189.238c1.862,13.99-2.334,16.261-2.334,16.261l-13.1,1.241s-6.442-19.5-2.644-24.268C414.1,177.507,427.31,182.448,428.217,189.238Z" transform="translate(-268.459 -124.467)" fill="#407bff"/>
          <path id="Path_40" data-name="Path 40" d="M428.217,189.238c1.862,13.99-2.334,16.261-2.334,16.261l-13.1,1.241s-6.442-19.5-2.644-24.268C414.1,177.507,427.31,182.448,428.217,189.238Z" transform="translate(-268.459 -124.467)" opacity="0.3"/>
          <path id="Path_41" data-name="Path 41" d="M426.571,200.647h0a1.03,1.03,0,0,1-.919,1.117h0l-13.307,1.241a1.018,1.018,0,0,1-1.1-.919h0a1.006,1.006,0,0,1,.894-1.1h0l13.307-1.241a1.03,1.03,0,0,1,1.13.906Z" transform="translate(-267.906 -119.814)" fill="#3636a4"/>
          <path id="Path_42" data-name="Path 42" d="M378.179,232.124l-1.812,3.96c-.149.31.186.621.72.583l42.714-1.936c.4,0,.72-.223.732-.459l.261-3.9c0-.273-.335-.5-.77-.484l-41.137,1.85a.819.819,0,0,0-.708.385Z" transform="translate(-276.329 -112.538)" fill="#263238"/>
          <path id="Path_43" data-name="Path 43" d="M383.047,236.558H381.88c-.236,0-.422-.1-.41-.236l.372-5.077c0-.137.211-.273.447-.285h1.179c.223,0,.422.112.4.248l-.36,5.077a.447.447,0,0,1-.459.273Z" transform="translate(-275.089 -112.279)" fill="#3636a4"/>
          <path id="Path_44" data-name="Path 44" d="M409.209,235.614h-1.167c-.236,0-.422-.1-.422-.248l.372-5.077c0-.137.211-.285.447-.285h1.241a.31.31,0,0,1,.41.261l-.36,5.077A.653.653,0,0,1,409.209,235.614Z" transform="translate(-268.779 -112.514)" fill="#3636a4"/>
          <path id="Path_45" data-name="Path 45" d="M397.206,236.091h-1.179a.3.3,0,0,1-.4-.261l.36-5.065c0-.137.223-.273.459-.286h1.167c.236,0,.422.112.41.261l-.372,5.077C397.641,235.967,397.405,236.091,397.206,236.091Z" transform="translate(-271.672 -112.395)" fill="#3636a4"/>
          <path id="Path_46" data-name="Path 46" d="M392.649,156.206c-.062.857-.583,1.5-1.13,1.477s-.981-.757-.919-1.626.571-1.5,1.13-1.477S392.7,155.35,392.649,156.206Z" transform="translate(-272.887 -130.711)" fill="#263238"/>
          <path id="Path_47" data-name="Path 47" d="M384.8,155.659c-.074.857-.571,1.514-1.13,1.49s-.981-.77-.906-1.639.559-1.514,1.117-1.49S384.9,154.777,384.8,155.659Z" transform="translate(-274.779 -130.846)" fill="#263238"/>
          <path id="Path_48" data-name="Path 48" d="M384.251,154.2l-2.011-.683S383.183,155.109,384.251,154.2Z" transform="translate(-274.903 -130.967)" fill="#263238"/>
          <path id="Path_49" data-name="Path 49" d="M387.061,156.68a23.587,23.587,0,0,1-3.451,5.288,3.724,3.724,0,0,0,3.016.782Z" transform="translate(-274.573 -130.204)" fill="#ed847e"/>
          <path id="Path_50" data-name="Path 50" d="M389.928,164.96a8.478,8.478,0,0,1-1.589,0,.211.211,0,0,1-.2-.223h0a.223.223,0,0,1,.223-.2,6.852,6.852,0,0,0,5.8-2.3.2.2,0,0,1,.273-.087.174.174,0,0,1,.1.248h0a6.927,6.927,0,0,1-4.605,2.557Z" transform="translate(-273.48 -128.889)" fill="#263238"/>
          <path id="Path_51" data-name="Path 51" d="M396.3,151.707a.459.459,0,0,1-.385-.161,4.034,4.034,0,0,0-3.364-1.651.434.434,0,0,1-.459-.4.41.41,0,0,1,.385-.447h0a4.866,4.866,0,0,1,4.1,1.974.41.41,0,0,1-.062.583.472.472,0,0,1-.211.1Z" transform="translate(-272.527 -132.046)" fill="#263238"/>
          <path id="Path_52" data-name="Path 52" d="M381.684,150.858a.447.447,0,0,1-.41-.1.422.422,0,0,1,0-.6h0a4.891,4.891,0,0,1,4.27-1.564.41.41,0,0,1,.348.459h0a.4.4,0,0,1-.484.323h0a4.109,4.109,0,0,0-3.5,1.328.472.472,0,0,1-.223.149Z" transform="translate(-275.166 -132.165)" fill="#263238"/>
          <path id="Path_53" data-name="Path 53" d="M363.281,408.88h0c-.3-.087-1.179-.323-2.185-.534-1.626-.323-3.6-.571-4.2,0a.646.646,0,0,0-.174.7,1.515,1.515,0,0,0,.807,1.068,4.207,4.207,0,0,0,2.557.2,15.417,15.417,0,0,0,2.706-.794,3.812,3.812,0,0,0,.484-.273h0a.186.186,0,0,0,.124-.2.2.2,0,0,0-.124-.161Zm-5.561.819a1.08,1.08,0,0,1-.608-.782.286.286,0,0,1,.075-.3.832.832,0,0,1,.472-.186h0a15.478,15.478,0,0,1,4.965.621c-1.3.521-3.736,1.254-4.891.645Z" transform="translate(-281.069 -69.555)" fill="#407bff"/>
          <path id="Path_54" data-name="Path 54" d="M375.368,415.957l-10.266.583L362.93,390.8l10.253-.6Z" transform="translate(-279.563 -73.852)" fill="#ffc3bd"/>
          <path id="Path_55" data-name="Path 55" d="M433.358,401.369,423.4,405.2l-8.553-23.411,9.955-3.823Z" transform="translate(-267.034 -76.803)" fill="#ffc3bd"/>
          <path id="Path_56" data-name="Path 56" d="M423.3,400.684l9.372-7.522a.857.857,0,0,1,1.13,0l8.019,7.262a1.713,1.713,0,0,1,0,2.421.808.808,0,0,1-.149.136c-3.3,2.57-5.04,3.637-9.124,6.964-2.483,2.085-8.689,8.056-12.252,10.862s-7.51-1.241-6.207-2.681c5.425-6.678,7.572-12.215,8.292-15.827a2.831,2.831,0,0,1,.919-1.614Z" transform="translate(-267.279 -73.189)" fill="#263238"/>
          <path id="Path_57" data-name="Path 57" d="M366.964,407.836l12.525-2.073a1.08,1.08,0,0,1,1.154.621l4.369,9.471a1.6,1.6,0,0,1-.757,2.11,1.414,1.414,0,0,1-.447.124c-4.407.77-6.5,1.055-12.016,2-3.4.559-13.146,3.8-17.863,3.265s-5.052-5.288-3.091-5.487c8.764-.943,12.289-6.132,14.5-9.037A2.582,2.582,0,0,1,366.964,407.836Z" transform="translate(-282.753 -70.1)" fill="#263238"/>
          <path id="Path_58" data-name="Path 58" d="M362.92,390.806l1.13,13.27,10.353.459-1.216-14.325Z" transform="translate(-279.566 -73.849)" opacity="0.2"/>
          <path id="Path_59" data-name="Path 59" d="M425.635,380.2l-9.955,3.823,4.419,12.066,9.943-3.823Z" transform="translate(-266.834 -76.265)" opacity="0.2"/>
          <path id="Path_60" data-name="Path 60" d="M382.532,235.13S357.333,291.262,356.253,338c-.72,31.306,4.667,96.215,4.667,96.215l18.086,3.811s.968-66.51,3.277-92.193C386.243,301.875,414.409,234,414.409,234Z" transform="translate(-281.19 -111.546)" fill="#407bff"/>
          <path id="Path_61" data-name="Path 61" d="M382.532,235.13S357.333,291.262,356.253,338c-.72,31.306,4.667,96.215,4.667,96.215l18.086,3.811s.968-66.51,3.277-92.193C386.243,301.875,414.409,234,414.409,234Z" transform="translate(-281.19 -111.546)" fill="#fff" opacity="0.4"/>
          <path id="Path_62" data-name="Path 62" d="M392.143,251.64l3.376,12.86q-8.358,23.982-14.288,48.709C377.309,288.755,387.451,262.613,392.143,251.64Z" transform="translate(-275.36 -107.289)" opacity="0.2"/>
          <path id="Path_63" data-name="Path 63" d="M357.447,399.189l22.964,1.763.323-8.739-24.144-.993Z" transform="translate(-281.093 -73.606)" fill="#407bff"/>
          <path id="Path_64" data-name="Path 64" d="M385.342,234.985s-5.139,63.829,4.295,104.68c7.622,32.994,34.918,86.781,34.918,86.781l12.413-7.932s-9.732-41.994-15.951-64.189c-15.256-54.444,12.227-85.452-1.738-120.706Z" transform="translate(-274.492 -111.637)" fill="#407bff"/>
          <path id="Path_65" data-name="Path 65" d="M385.342,234.985s-5.139,63.829,4.295,104.68c7.622,32.994,34.918,86.781,34.918,86.781l12.413-7.932s-9.732-41.994-15.951-64.189c-15.256-54.444,12.227-85.452-1.738-120.706Z" transform="translate(-274.492 -111.637)" fill="#fff" opacity="0.4"/>
          <path id="Path_66" data-name="Path 66" d="M415.4,393.333l17.416-6.269-1.527-7.274-19.34,7.622Z" transform="translate(-267.734 -76.364)" fill="#407bff"/>
          <path id="Path_67" data-name="Path 67" d="M422.37,400.34h-.2l-.732.236c-.323.124-.72.261-1.13.434h0c-1.142.484-2.383,1.154-2.594,1.874a.844.844,0,0,0,.223.807,1.564,1.564,0,0,0,.832.534h.385a2.917,2.917,0,0,0,1.626-1.068h0a11.579,11.579,0,0,0,1.6-2.408.445.445,0,0,0,0-.087h0a.112.112,0,0,0,0-.062.174.174,0,0,0-.012-.261Zm-.6.546h0a12.049,12.049,0,0,1-.708,1.167,3.8,3.8,0,0,1-1.949,1.738,1,1,0,0,1-.894-.41.422.422,0,0,1-.124-.4c.2-.7,1.936-1.477,3.215-1.936l.459-.161Z" transform="translate(-266.349 -71.405)" fill="#407bff"/>
          <path id="Path_68" data-name="Path 68" d="M422.427,400.677h-.062a4.955,4.955,0,0,0-.621-.472,5.623,5.623,0,0,0-3.289-1.316,1.328,1.328,0,0,0-.919.571.856.856,0,0,0,0,1.068,2.483,2.483,0,0,0,1.44.683,7.576,7.576,0,0,0,1.4.136h0a9.6,9.6,0,0,0,1.043,0,4.219,4.219,0,0,0,.956-.2h.074a.444.444,0,0,0,0-.087h0a.111.111,0,0,0,0-.062.211.211,0,0,0-.025-.323Zm-4.568-.447a.473.473,0,0,1,0-.559.869.869,0,0,1,.633-.4,2.321,2.321,0,0,1,.583,0,7.769,7.769,0,0,1,2.483,1.241l.261.2a2.833,2.833,0,0,1-.323,0c-1.241.273-3.153.112-3.637-.447Z" transform="translate(-266.431 -71.755)" fill="#407bff"/>
          <path id="Path_69" data-name="Path 69" d="M363.187,409.577a3.462,3.462,0,0,0-.161-.36c-.509-1.068-2.1-4.072-4.134-3.451-.6.174-.745.509-.732.757,0,.708,1.241,1.663,2.483,2.371a13.8,13.8,0,0,0,1.589.757l.335.112.3.087h.1l.149-.074a.248.248,0,0,0,.074-.2Zm-4.593-3.066s0-.211.4-.323h.186c1.576-.236,2.917,2.222,3.4,3.2-1.614-.6-3.96-2.073-3.985-2.88Z" transform="translate(-280.714 -70.116)" fill="#407bff"/>
          <path id="Path_70" data-name="Path 70" d="M392.1,154.755l-2.023-.7S391.023,155.711,392.1,154.755Z" transform="translate(-273.011 -130.837)" fill="#263238"/>
        </g>
      </g>
      <g id="freepik--Graphics--inject-8" transform="translate(58.938 98.682)">
        <path id="Path_71" data-name="Path 71" d="M78.674,90.19l.819,9.372H57.671l1.912,21.822H50.211L47.48,90.19Z" transform="translate(-47.48 -90.19)" fill="#3636a4"/>
        <path id="Path_72" data-name="Path 72" d="M102.015,362.917l-.819-9.372H79.374L77.462,331.71H68.09l2.731,31.207Z" transform="translate(-42.506 -31.907)" fill="#3636a4"/>
        <path id="Path_73" data-name="Path 73" d="M248.469,362.914l-.819-9.372h21.822l-1.912-21.822h9.372l2.731,31.194Z" transform="translate(0.825 -31.905)" fill="#3636a4"/>
        <path id="Path_74" data-name="Path 74" d="M224.49,90.8l.819,9.372h21.835l1.912,21.835h9.36L255.7,90.8Z" transform="translate(-4.764 -90.043)" fill="#3636a4"/>
      </g>
      <g id="freepik--Fingerprint--inject-8" transform="translate(104.792 109.792)">
        <path id="Path_75" data-name="Path 75" d="M202.812,118.827l3.078.559-2.545-1.961c-.67-.521-1.365-1.043-2.048-1.539l-.161-.124h-.2c-15.727-3.141-34.869-8.64-56.9-16.547l-.186-.074h-.2c-.732.1-1.465.223-2.185.36l-2.756.534,2.756,1.005C165.473,109.778,186.116,115.736,202.812,118.827Z" transform="translate(-71.319 -99.14)" fill="#3636a4"/>
        <path id="Path_76" data-name="Path 76" d="M216.493,128.073l2.483.583-1.837-1.912c-.472-.5-.956-.968-1.452-1.452l-.174-.161h-.236c-21.946-5.214-49.727-12.86-82.535-22.7l-.3-.087-.261.112-1.428.683-1.775.881,2.011.608C165.276,114.89,194.037,122.8,216.493,128.073Z" transform="translate(-73.667 -98.368)" fill="#3636a4"/>
        <path id="Path_77" data-name="Path 77" d="M228.79,138.807l2.483.869-1.6-2.073c-.236-.31-.484-.608-.72-.906l-.323-.4v-.31l-.546-.2c-18.98-6.7-52.384-17.068-103.787-28.426l-.348-.074-.273.2c-.372.273-.745.534-1.117.832l-1.328,1.043,1.75.385C175.562,121.354,209.575,131.955,228.79,138.807Z" transform="translate(-75.537 -97.173)" fill="#3636a4"/>
        <path id="Path_78" data-name="Path 78" d="M240.056,151.156l2.483,1.241-1.5-2.358-1.08-1.7-.137-.211-.223-.1c-22.853-11.519-62.662-26.862-122.555-34.608h-.372l-.248.248-.968.968-1.092,1.154,1.676.211C177.047,123.76,217.153,139.4,240.056,151.156Z" transform="translate(-77.195 -95.694)" fill="#3636a4"/>
        <path id="Path_79" data-name="Path 79" d="M225.388,150.2h0a211.376,211.376,0,0,1,24.566,14.213l2.483,1.639-1.3-2.594c-.261-.521-.534-1.018-.794-1.527l-.124-.223v-.261l-.36-.236a216.712,216.712,0,0,0-23.324-13.357c-23.585-11.693-62.835-25.944-115.765-27.5h-.385l-.223.286-.819,1.03-1.068,1.241h1.75C162.776,124.369,201.878,138.533,225.388,150.2Z" transform="translate(-78.665 -94.019)" fill="#3636a4"/>
        <path id="Path_80" data-name="Path 80" d="M117.966,140.681l.794.074V138.1l-.807-.074a56.952,56.952,0,0,0-19.191,1.75l-.323.087-.137.31c-.2.422-.385.844-.571,1.241l-.683,1.626,1.713-.5a54.37,54.37,0,0,1,19.2-1.862Z" transform="translate(-81.372 -89.799)" fill="#3636a4"/>
        <path id="Path_81" data-name="Path 81" d="M227.573,157.224a214.87,214.87,0,0,1,30.834,20.8l2.272,1.887-1.1-2.718c-.273-.683-.571-1.353-.869-2.011l-.087-.2-.174-.149A218.571,218.571,0,0,0,104.98,128.066h-.372l-.186.3c-.236.36-.459.732-.683,1.1l.67.5h0l-.7-.447-.844,1.39,1.676-.137a215.481,215.481,0,0,1,123.027,26.453ZM104.459,130Z" transform="translate(-79.968 -92.328)" fill="#3636a4"/>
        <path id="Path_82" data-name="Path 82" d="M145.623,136.75c28.463,3.141,72,14.325,117.565,49.764l2.123,1.651-.919-2.483c-.161-.447-.335-.894-.509-1.353l-.149-.385v-.273l-.31-.236c-45.73-35.092-89.276-46.2-117.764-49.342a191.509,191.509,0,0,0-44.154.149h-.372L99.62,137.16l1.626-.211a188.418,188.418,0,0,1,44.377-.2Z" transform="translate(-80.752 -90.995)" fill="#3636a4"/>
        <path id="Path_83" data-name="Path 83" d="M96.933,219.133l-2.483-1.043-.261.72a188.863,188.863,0,0,0-7.51,37.239v.248c.236,1.117.5,2.234.77,3.352l1.167,4.841.41-4.829a185.465,185.465,0,0,1,7.684-39.809Z" transform="translate(-83.875 -70.435)" fill="#3636a4"/>
        <path id="Path_84" data-name="Path 84" d="M93.308,182.838v-.807l-2.681-.161v.807c.459,16.745-1.452,37.078-6.207,65.939v.236c.149,1.241.323,2.483.509,3.649l.757,5.052.819-4.965C91.682,221.878,93.829,200.353,93.308,182.838Z" transform="translate(-84.42 -79.176)" fill="#3636a4"/>
        <path id="Path_85" data-name="Path 85" d="M97.945,214.408l3.438-10.775-2.57-.993L95.4,213.415Z" transform="translate(-81.77 -74.164)" fill="#3636a4"/>
        <path id="Path_86" data-name="Path 86" d="M92.453,180.137a24.827,24.827,0,0,1,6.591-13.654l.583-.534L97.692,164l-.546.509A26.837,26.837,0,0,0,89.8,179.616l-.087.77,2.656.559Z" transform="translate(-83.143 -83.488)" fill="#3636a4"/>
        <path id="Path_87" data-name="Path 87" d="M92.77,198.651l2.681.323v-.794c.248-7.237,7.448-17.378,7.808-17.776l.447-.621-2.2-1.663-.459.608c-.3.484-7.994,10.862-8.255,19.1Z" transform="translate(-82.405 -80.081)" fill="#3636a4"/>
        <path id="Path_88" data-name="Path 88" d="M108.5,184.867l.571-.546-2.036-1.961-.534.571c-.956,1.03-9.471,10.564-13.99,30.09l-.174.757,2.619.807.174-.757C99.7,194.078,108.427,184.954,108.5,184.867Z" transform="translate(-82.509 -79.058)" fill="#3636a4"/>
        <path id="Path_89" data-name="Path 89" d="M108.183,192.829l-2.309-1.539-5.834,9.5,2.321,1.539Z" transform="translate(-80.651 -76.903)" fill="#3636a4"/>
        <path id="Path_90" data-name="Path 90" d="M111.461,166.731l.732-.223-.993-2.557-.745.236c-.571.186-13.928,4.556-17.627,18.359l-.2.757,2.582.881.2-.745C98.787,170.877,110.939,166.9,111.461,166.731Z" transform="translate(-82.439 -83.5)" fill="#3636a4"/>
        <path id="Path_91" data-name="Path 91" d="M116.068,152.663l.794-.112-.633-2.632-.77.112c-12.649,1.837-19.861,6.393-23.66,9.931l-.261.261v.223L90,165.933l2.359-2.557C95.214,160.235,102.152,154.687,116.068,152.663Z" transform="translate(-83.073 -86.886)" fill="#3636a4"/>
        <path id="Path_92" data-name="Path 92" d="M150.866,144.54c28.389,1.1,71.835,10.787,117.664,50.658l2.147,1.862-.894-2.644c-.211-.608-.41-1.241-.633-1.812v-.261l-.285-.236c-46.053-39.536-89.685-49.131-118.173-50.224-29.208-1.13-50,6.082-55.673,8.317l-.286.112-.112.285c-.149.372-.286.757-.41,1.13l-.732,2.061,1.75-.72C99.091,151.367,120.193,143.3,150.866,144.54Z" transform="translate(-82.234 -88.854)" fill="#3636a4"/>
        <path id="Path_93" data-name="Path 93" d="M153.294,149.757c-32.436,1.241-54.283,14.374-55.214,14.9l-.67.4,1.576,2.284.658-.4c.894-.546,22.269-13.394,54.022-14.573,28.165-1.068,71.4,7.038,117.379,51.7l2.11,2.048-.807-2.768c-.2-.67-.41-1.341-.621-2l-.062-.223-.174-.161C225.228,156.721,181.683,148.7,153.294,149.757Z" transform="translate(-81.285 -86.946)" fill="#3636a4"/>
        <path id="Path_94" data-name="Path 94" d="M212.282,165.816a113.494,113.494,0,0,0-56.5-7.994c-32.15,3.811-53.178,20.867-53.377,21.04l-.571.484,1.787,2.1.583-.484a110.477,110.477,0,0,1,52.135-20.482c27.855-3.314,70.755,3.178,116.684,52.793l2.123,2.284-.782-2.942c-.2-.72-.385-1.428-.583-2.135v-.211l-.149-.149C254.016,189.252,233.372,174.357,212.282,165.816Z" transform="translate(-80.219 -85.155)" fill="#3636a4"/>
        <path id="Path_95" data-name="Path 95" d="M185.377,164.472c-45.929-4.171-78.2,28.277-78.551,28.55l-.546.546,2.011,1.924.534-.534c.31-.323,31.865-31.964,76.54-27.892,30.834,2.805,60.911,21.45,89.375,55.412l2.16,2.57-.782-3.178c-.174-.72-.348-1.415-.509-2.135v-.223l-.174-.211C246.747,185.785,216.41,167.315,185.377,164.472Z" transform="translate(-79.145 -83.464)" fill="#3636a4"/>
        <path id="Path_96" data-name="Path 96" d="M111.95,212.729c22.145-31.765,66.8-52.607,116.684-27.557,25.931,13.021,36.78,28.488,49.342,46.388q1.788,2.545,3.649,5.164l2.036,2.855-.608-3.352c-.149-.807-.285-1.6-.434-2.321v-.236l-.137-.186c-.794-1.117-1.576-2.222-2.346-3.339-12.81-18.223-23.871-33.962-50.447-47.331-51.279-25.77-97.183-4.369-119.936,28.265-20.78,29.792-19.3,64.114-16.559,81.927v.174c.645,1.7,1.241,3.4,1.961,5.065l1.527-.323C90.537,266.491,96.111,235.458,111.95,212.729Z" transform="translate(-82.68 -81.708)" fill="#3636a4"/>
        <path id="Path_97" data-name="Path 97" d="M197.721,275.965c-4.7-12.115-6.939-13.394-8.689-12.972-4.345,1.043-.323,16.845-.285,17.006,2.234,8.553,37.587,28.178,52.682,36.209l.683.372,1.241-2.259-.77-.41c-23.759-12.674-49.653-28.364-51.266-34.372-1.763-6.753-1.812-12.053-1.44-13.654.683.757,2.346,3.2,5.3,10.812,7.038,18.136,34.173,28.687,49.727,33.354l.608.186.286-.534.509-1.005.422-.869-.981-.3C230.641,302.951,204.226,292.722,197.721,275.965Z" transform="translate(-59.662 -59.615)" fill="#3636a4"/>
        <path id="Path_98" data-name="Path 98" d="M202.483,273.033c-4.767-11-8.515-15.827-12.14-15.591s-6.207,5.561-7.994,17.478c-2.483,15.988,42.689,41.3,56.592,48.684l.621.335.372-.546c.211-.3.4-.608.583-.906l.447-.72-.807-.434c-27.793-14.784-56.877-34.645-55.164-45.817,2.123-13.8,4.7-15.4,5.772-15.454.77,0,3.724.993,9.273,13.791s21.773,24.119,48.176,33.156l.67.236.261-.608c.074-.161.149-.31.211-.459s.161-.323.236-.5l.36-.819-.906-.3C223.735,295.935,207.635,285.024,202.483,273.033Z" transform="translate(-60.812 -60.941)" fill="#3636a4"/>
        <path id="Path_99" data-name="Path 99" d="M207.684,270.208c-6.02-12.612-11.569-18.769-17.031-18.818S180.574,257.6,176.416,270.3c-7.547,23.064,44.079,52.26,60.08,60.651l.608.323,1.539-2.11-.881-.459c-11.048-5.834-65.79-36-58.8-57.386,3.724-11.3,7.82-17.267,11.966-17.267s9.024,5.983,14.35,17.143c5.909,12.413,21.1,23.126,46.438,32.883l.658.261.3-.6a10.441,10.441,0,0,0,.434-1.018l.3-.77-.819-.31C227.918,292.143,213.233,281.852,207.684,270.208Z" transform="translate(-62.401 -62.399)" fill="#3636a4"/>
        <path id="Path_100" data-name="Path 100" d="M212.939,267.493c-7.746-14.71-15.355-22.344-22.617-22.493s-13.828,6.827-19.787,20.867,3.563,31.169,27.433,49.653A259.435,259.435,0,0,0,233.756,338.2l.583.3.372-.459.683-.819.6-.757-.919-.472c-12.475-6.517-74.082-40.43-62.066-68.881,5.511-13.046,11.383-19.576,17.465-19.414s12.922,7.237,20.122,20.891c8.193,15.554,29.357,26.068,44.576,32.585l.745.323.4-1.03c.074-.223.161-.434.236-.658l.261-.72-.757-.323C241.254,292.369,220.7,282.24,212.939,267.493Z" transform="translate(-64.056 -63.942)" fill="#3636a4"/>
        <path id="Path_101" data-name="Path 101" d="M218.255,264.816c-10.129-17.49-19.538-26.068-28.774-26.415-8.937-.261-17.242,7.522-24.826,23.138-3.724,7.8-3.96,16.249-.546,25.1,11.01,28.612,57.349,53.836,66.522,58.6l.546.273.385-.4.732-.794.683-.757-.981-.509c-9.049-4.68-54.717-29.432-65.405-57.187-3.128-8.118-2.967-15.864.5-23.014,6.989-14.461,14.449-21.785,22.195-21.785h.31c8.155.248,16.77,8.391,26.341,24.913,8.391,14.5,27.148,24.826,42.552,32.2l.77.36.285-.745c.124-.323.236-.658.348-.993l.236-.7-.708-.335C244.447,288.575,226.2,278.558,218.255,264.816Z" transform="translate(-65.772 -65.535)" fill="#3636a4"/>
        <path id="Path_102" data-name="Path 102" d="M223.592,262.167c-8.888-13.952-20.966-30.09-35.291-30.487h-.434c-10.328,0-20.085,8.6-29,25.584-5.189,9.931-5.76,20.469-1.7,31.418,11.817,31.927,60.365,58.429,69.973,63.419l.509.261.385-.348c.273-.248.546-.5.807-.757l.794-.757-1.055-.546c-9.484-4.916-57.324-30.8-68.918-62.016-3.724-10.2-3.24-20.06,1.614-29.3,8.577-16.373,17.726-24.59,27.21-24.317,12.935.31,24.367,15.715,32.883,29.109,8.689,13.654,25.286,23.659,40.417,31.691l.819.434.273-.819c.112-.348.211-.7.31-1.03l.161-.633-.608-.335C248,284.9,231.822,275.114,223.592,262.167Z" transform="translate(-67.509 -67.156)" fill="#3636a4"/>
        <path id="Path_103" data-name="Path 103" d="M228.948,259.52l-.211-.3c-8.9-12.773-23.8-34.161-41.882-34.372h-.248c-11.9,0-23.188,9.471-33.516,28.153a44.116,44.116,0,0,0-3.016,37.823c12.14,33.838,58.975,60.514,73.039,67.888l.472.248.472-.372c.273-.211.546-.422.807-.645l.881-.757-1.1-.571c-9.931-5.151-59.881-32.535-72.071-66.485a41.646,41.646,0,0,1,2.88-35.663c9.931-18,20.606-27.073,31.616-26.924,16.634.2,30.971,20.8,39.524,33.106l.211.3c9.012,12.947,25.124,23.411,38.146,31.033l.869.521.72-2.557-.583-.335C253.278,282.137,237.575,271.97,228.948,259.52Z" transform="translate(-69.277 -68.804)" fill="#3636a4"/>
        <path id="Path_104" data-name="Path 104" d="M234.372,256.92c-.447-.583-.919-1.241-1.4-1.874l-1.179-1.552c-9.931-13.245-26.428-35.415-46.376-35.464-13.468,0-26.266,10.34-38.071,30.735-8.218,14.225-9.67,29.134-4.32,44.315,12.711,36.11,60.973,64.139,75.46,71.872l.434.223,2.483-1.626-1.241-.645c-14.35-7.572-62.066-35.042-74.591-70.494-5.077-14.424-3.724-28.55,4.146-42.2,11.333-19.613,23.436-29.543,36-29.543,18.458,0,34.447,21.462,44,34.26.919,1.241,1.788,2.4,2.594,3.451,9.446,12.413,24.057,22.691,35.725,30.263l.919.6.261-.993.261-1.068.112-.559-.509-.335C257.672,278.941,243.471,268.887,234.372,256.92Z" transform="translate(-71.04 -70.45)" fill="#3636a4"/>
        <path id="Path_105" data-name="Path 105" d="M243.643,255.613c-23.722-35.477-44.9-43.061-58.5-43.173-16.137-.062-30.189,9.931-39.722,28.426-11.172,21.8-12.686,43.2-4.369,63.593,14.387,35.253,54.308,58.019,70.755,66.162l.36.174.335-.149c.41-.186.807-.4,1.241-.608l1.328-.708-1.452-.72c-12.761-6.207-55.524-29.283-70.085-64.971-8.019-19.625-6.567-40.293,4.295-61.408,9-17.49,22.22-27.123,37.24-27.123h.273c12.91.1,33.106,7.448,56.12,41.845,7.051,10.551,19.662,20.1,29,26.241l.968.633.236-1.167c.074-.335.137-.67.2-.993l.1-.534-.484-.323C262.5,274.866,250.371,265.655,243.643,255.613Z" transform="translate(-72.031 -71.799)" fill="#3636a4"/>
        <path id="Path_106" data-name="Path 106" d="M248.413,251.307c-9.757-14.449-19.216-24.677-29.792-32.187C204.4,209,189.81,204.968,176.416,207.426c-14.548,2.694-27.309,13.046-36.1,29.146-19.352,35.6-9.36,65.405,2.483,84.124,18.26,29.258,51.726,47.319,65.268,53.724l.335.149.31-.124a11.637,11.637,0,0,0,1.241-.546l1.552-.7-1.639-.757c-13.468-6.207-46.76-23.957-64.908-53-11.4-18.1-21.1-46.922-2.284-81.455,8.4-15.467,20.631-25.385,34.434-27.942,12.612-2.334,26.465,1.539,40.045,11.172,10.241,7.274,19.464,17.254,29.022,31.405,5.511,8.168,14.511,16.919,26.75,26.068l1.005.745.223-1.154c.087-.385.149-.77.2-1.167l.074-.5-.422-.31C262.3,267.506,253.664,259.1,248.413,251.307Z" transform="translate(-73.561 -73.178)" fill="#3636a4"/>
        <path id="Path_107" data-name="Path 107" d="M253.127,247.033c-10.862-15.951-20.656-26.068-32.721-34-15.6-10.191-31.554-14.064-46.152-11.172-15.752,3.091-29.618,13.9-39.052,30.425-16.137,28.215-15.814,60.651.757,89,18.359,31.393,53.377,50.05,67.515,56.616l.286.124.273-.074c.472-.124.931-.273,1.39-.422l2.023-.658-1.924-.869c-14.151-6.418-49.032-24.715-67.267-55.859-9.446-16.137-22.1-48.858-.7-86.358,9.086-15.914,22.344-26.316,37.426-29.283,13.9-2.743,29.146.981,44.092,10.75,11.73,7.671,21.264,17.589,31.877,33.168,5.362,7.882,13.555,16.4,24.355,25.335l1.08.894.186-1.316c.062-.41.112-.819.149-1.241v-.435l-.36-.3C266.1,262.748,258.229,254.567,253.127,247.033Z" transform="translate(-75.035 -74.576)" fill="#3636a4"/>
        <path id="Path_108" data-name="Path 108" d="M257.878,242.785c-8.627-12.562-18.93-25.6-35.663-35.8-43.024-26.241-76.515-5.052-92.118,21.1-17.105,28.625-17.378,63.7-.919,93.856,17.453,31.877,50.484,50.671,68.62,59.049l.236.112h.248c.6-.1,1.241-.2,1.788-.323l2.371-.459-2.309-1.043c-18.173-8.205-51.266-26.688-68.632-58.342-16.063-29.3-15.715-63.406.919-91.237,15.008-25.137,47.17-45.556,88.556-20.345,16.224,9.931,26.291,22.642,34.757,34.931a143.632,143.632,0,0,0,21.7,23.957l1.179,1.08.137-1.5c0-.434.062-.869.087-1.241l-.794-.137h0l.794.112v-.4l-.31-.285a140.271,140.271,0,0,1-20.643-23.089Z" transform="translate(-76.547 -76.014)" fill="#3636a4"/>
        <path id="Path_109" data-name="Path 109" d="M262.686,238.5c-10.675-15.38-21.313-27.657-38.593-37.575-19.861-11.457-40.231-14.6-58.764-9.086-16.137,4.829-30.474,16.137-40.306,31.952-18.347,29.407-19.3,66.311-2.582,98.71,16.869,32.684,49.653,51.986,67.776,60.589l.174.074h2.532l3.1-.174-2.93-1.341c-18.26-8.416-51.415-27.4-68.272-60.142-16.274-31.542-15.33-67.478,2.483-96.128,16.311-26.179,51.142-47.679,95.581-22.133,16.8,9.657,27.185,21.649,37.6,36.681a170.442,170.442,0,0,0,18.806,22.344l1.241,1.328v-3.55l-.248-.248a168.035,168.035,0,0,1-17.6-21.3Z" transform="translate(-78.115 -77.409)" fill="#3636a4"/>
        <path id="Path_110" data-name="Path 110" d="M267.447,234.252c-9.546-13.654-20.618-27.967-41.51-39.375-21.338-11.656-43.161-14.61-63.1-8.528-17.192,5.238-32.436,17.031-42.925,33.193-23.051,35.539-17.3,76.813-4.245,103.588,14.9,30.4,42.528,49.516,63.158,60.2l.2.1h.124c1.055.2,2.147.36,3.252.5l4.506.571-4.171-2.073c-21.227-10.514-49.653-29.519-64.673-60.291-12.748-26.068-18.359-66.361,4.134-101.006,19.079-29.419,58.205-48.225,102.607-23.957,20.358,11.172,31.157,25.1,40.479,38.481a215.348,215.348,0,0,0,15.492,19.638l1.44,1.626-.062-2.284V252.9l-.2-.223a215,215,0,0,1-14.511-18.421Z" transform="translate(-79.636 -78.839)" fill="#3636a4"/>
        <path id="Path_111" data-name="Path 111" d="M282.886,244.7v-.236l-.149-.2c-4.022-5.139-7.56-10.1-10.5-14.275-10.526-14.9-21.847-29.357-44.439-41.15-48.61-25.422-91.758-5.027-112.96,26.465-24.566,36.495-18.545,81.232-5.909,108.441,8.9,19.29,23.722,36.284,43.955,50.435l.223.161a85.878,85.878,0,0,0,9.148,4.754l.645-1.39c-24.255-14.9-41.609-33.342-51.564-54.891C99,296.239,93.1,252.557,117.1,216.919c20.581-30.586,62.463-50.41,109.633-25.757,21.971,11.495,33.056,25.584,43.372,40.219,2.992,4.27,7.026,9.931,11.594,15.678l1.626,2.073-.223-2.483Q282.973,245.655,282.886,244.7Z" transform="translate(-81.16 -80.262)" fill="#3636a4"/>
        <path id="Path_112" data-name="Path 112" d="M160.547,99.29a22.244,22.244,0,0,0-5.127.1,316.539,316.539,0,0,0,31.318,9.26C181.637,104.938,166.828,99.824,160.547,99.29Z" transform="translate(-67.286 -99.129)" fill="#3636a4"/>
      </g>
    </g>
  </g>
</svg>
