<svg xmlns="http://www.w3.org/2000/svg" xmlns:xlink="http://www.w3.org/1999/xlink" width="600" height="470" viewBox="0 0 600 470">
  <defs>
    <clipPath id="clip-sign_up">
      <rect width="600" height="470"/>
    </clipPath>
  </defs>
  <g id="sign_up" clip-path="url(#clip-sign_up)">
    <g id="Login-rafiki" transform="translate(21.939 -27.189)">
      <g id="freepik--background-complete--inject-6" transform="translate(0 55)">
        <rect id="Rectangle_1" data-name="Rectangle 1" width="556.122" height="0.278" transform="translate(0 364.149)" fill="#ebebeb"/>
        <rect id="Rectangle_2" data-name="Rectangle 2" width="24.113" height="0.278" transform="translate(476.285 382.045)" fill="#ebebeb"/>
        <rect id="Rectangle_3" data-name="Rectangle 3" width="37.939" height="0.278" transform="translate(345.418 376.283)" fill="#ebebeb"/>
        <rect id="Rectangle_4" data-name="Rectangle 4" width="49.528" height="0.278" transform="translate(441.105 371.723)" fill="#ebebeb"/>
        <rect id="Rectangle_5" data-name="Rectangle 5" width="12.39" height="0.278" transform="translate(180.05 377.329)" fill="#ebebeb"/>
        <rect id="Rectangle_6" data-name="Rectangle 6" width="42.699" height="0.278" transform="translate(127.441 377.329)" fill="#ebebeb"/>
        <rect id="Rectangle_7" data-name="Rectangle 7" width="30.809" height="0.278" transform="translate(73.753 372.635)" fill="#ebebeb"/>
        <path id="Path_1" data-name="Path 1" d="M259.313,369.543H44.55a6.351,6.351,0,0,1-6.34-6.351V61.3A6.351,6.351,0,0,1,44.55,55H259.313a6.351,6.351,0,0,1,6.351,6.351V363.192A6.351,6.351,0,0,1,259.313,369.543ZM44.55,55.222A6.073,6.073,0,0,0,38.488,61.3v301.9a6.073,6.073,0,0,0,6.062,6.073H259.313a6.084,6.084,0,0,0,6.073-6.073V61.3a6.084,6.084,0,0,0-6.073-6.073Z" transform="translate(4.289 -55)" fill="#ebebeb"/>
        <path id="Path_2" data-name="Path 2" d="M475.625,369.543H260.851a6.362,6.362,0,0,1-6.351-6.351V61.3a6.362,6.362,0,0,1,6.351-6.3H475.625a6.351,6.351,0,0,1,6.329,6.3v301.9A6.351,6.351,0,0,1,475.625,369.543ZM260.851,55.222a6.084,6.084,0,0,0-6.073,6.073v301.9a6.084,6.084,0,0,0,6.073,6.073H475.625a6.084,6.084,0,0,0,6.073-6.073V61.3a6.084,6.084,0,0,0-6.073-6.073Z" transform="translate(28.566 -55)" fill="#ebebeb"/>
        <path id="Path_3" data-name="Path 3" d="M115.288,179.324a23.257,23.257,0,0,0,0-46.514H112.43v46.514Z" transform="translate(12.62 -46.266)" fill="#e0e0e0"/>
        <circle id="Ellipse_1" data-name="Ellipse 1" cx="23.257" cy="23.257" r="23.257" transform="translate(101.77 86.544)" fill="#f5f5f5"/>
        <path id="Path_4" data-name="Path 4" d="M114.593,161.654A31.143,31.143,0,0,1,83.45,130.511V111.925a2.925,2.925,0,1,1,5.85,0v18.6a25.315,25.315,0,0,0,25.281,25.292,2.925,2.925,0,1,1,0,5.839Z" transform="translate(9.367 -48.939)" fill="#e0e0e0"/>
        <path id="Path_5" data-name="Path 5" d="M63.372,129.153h51.742a5.406,5.406,0,0,0,5.228-6.785l-4.5-16.962a5.406,5.406,0,0,0-5.216-4.026H67.866a5.417,5.417,0,0,0-5.228,4.026l-4.449,16.939a5.394,5.394,0,0,0,5.183,6.807Z" transform="translate(6.51 -49.794)" fill="#f5f5f5"/>
        <path id="Path_6" data-name="Path 6" d="M410.568,179.324a23.257,23.257,0,0,0,0-46.514H407.71v46.514Z" transform="translate(45.763 -46.266)" fill="#e0e0e0"/>
        <circle id="Ellipse_2" data-name="Ellipse 2" cx="23.257" cy="23.257" r="23.257" transform="translate(430.216 86.544)" fill="#f5f5f5"/>
        <path id="Path_7" data-name="Path 7" d="M409.893,161.654a31.143,31.143,0,0,1-31.143-31.143V111.925a2.925,2.925,0,1,1,5.85,0v18.6a25.315,25.315,0,0,0,25.281,25.292,2.925,2.925,0,1,1,0,5.839Z" transform="translate(42.512 -48.939)" fill="#e0e0e0"/>
        <path id="Path_8" data-name="Path 8" d="M358.671,129.15h51.742a5.406,5.406,0,0,0,5.228-6.785l-4.449-16.939a5.406,5.406,0,0,0-5.216-4.026h-42.81a5.417,5.417,0,0,0-5.228,4.026l-4.449,16.939a5.394,5.394,0,0,0,5.183,6.785Z" transform="translate(39.656 -49.792)" fill="#f5f5f5"/>
        <rect id="Rectangle_8" data-name="Rectangle 8" width="16.917" height="65.545" transform="translate(165.936 290.14) rotate(180)" fill="#e6e6e6"/>
        <path id="Path_9" data-name="Path 9" d="M92.75,323.591h56.135l8.475-76.711H101.225Z" transform="translate(10.411 -33.463)" fill="#f0f0f0"/>
        <path id="Path_10" data-name="Path 10" d="M87.28,323.591h57.992l8.475-76.711H95.766Z" transform="translate(9.797 -33.463)" fill="#f5f5f5"/>
        <path id="Path_11" data-name="Path 11" d="M140.521,316.941l7.141-64.621H99.391L92.25,316.941Z" transform="translate(10.354 -32.852)" fill="#fff"/>
        <path id="Path_12" data-name="Path 12" d="M128.874,299.686l.345-2.592c1.791-16.216-8.331-30.665-21.477-30.665h0l-.3,2.636c-1.791,16.205,8.331,30.653,21.489,30.653Z" transform="translate(12.036 -31.268)" fill="#f5f5f5"/>
        <rect id="Rectangle_9" data-name="Rectangle 9" width="49.873" height="74.02" transform="translate(115.595 364.149) rotate(180)" fill="#e6e6e6"/>
        <path id="Path_13" data-name="Path 13" d="M64.1,383.84H59.08V369.57H69.357Z" transform="translate(6.631 -19.691)" fill="#f0f0f0"/>
        <rect id="Rectangle_10" data-name="Rectangle 10" width="49.873" height="74.02" transform="translate(255.371 364.149) rotate(180)" fill="#e6e6e6"/>
        <rect id="Rectangle_11" data-name="Rectangle 11" width="144.158" height="65.255" transform="translate(209.869 355.395) rotate(180)" fill="#f0f0f0"/>
        <path id="Path_14" data-name="Path 14" d="M184.711,383.84h5.016V369.57H179.45Z" transform="translate(20.142 -19.691)" fill="#f0f0f0"/>
        <rect id="Rectangle_12" data-name="Rectangle 12" width="136.372" height="26.338" transform="translate(205.976 320.549) rotate(180)" fill="#e6e6e6"/>
        <path id="Path_15" data-name="Path 15" d="M117.818,335.907H136a28.74,28.74,0,0,0,20.888-8.987H96.93a28.774,28.774,0,0,0,20.888,8.987Z" transform="translate(10.88 -24.479)" fill="#f0f0f0"/>
        <rect id="Rectangle_13" data-name="Rectangle 13" width="136.372" height="26.338" transform="translate(205.976 351.135) rotate(180)" fill="#e6e6e6"/>
        <path id="Path_16" data-name="Path 16" d="M117.818,363.367H136a28.74,28.74,0,0,0,20.888-8.987H96.93a28.774,28.774,0,0,0,20.888,8.987Z" transform="translate(10.88 -21.396)" fill="#f0f0f0"/>
        <path id="Path_17" data-name="Path 17" d="M180.651,318.639h1.29c0-2.658,0-9.387.133-24.814.234-27.973.678-29.675.678-29.675l-3.07,12.913C177.737,291.355,180.251,305.726,180.651,318.639Z" transform="translate(20.086 -31.524)" fill="#e6e6e6"/>
        <path id="Path_18" data-name="Path 18" d="M180.627,274.82c-4.449-5.261-13.847-6.8-23.5-8.108-3.793-.512,9.955,8.153,16.684,14.3,5.228,4.783,8.564,6.106,10.01,10.867C184.554,285.943,184.431,279.392,180.627,274.82Z" transform="translate(17.563 -31.239)" fill="#e6e6e6"/>
        <path id="Path_19" data-name="Path 19" d="M183.819,283.3c4.449-5.261,13.847-6.785,23.5-8.1,3.793-.512-10.01,8.153-16.684,14.3-5.228,4.783-8.564,6.106-10.01,10.867C179.892,294.433,179.97,287.837,183.819,283.3Z" transform="translate(20.234 -30.286)" fill="#e6e6e6"/>
        <path id="Path_20" data-name="Path 20" d="M181.991,264.464c3.337-6.3,11.634-12.235,20.988-14.459,3.67-.879-8.509,11.612-13.136,19.676-3.593,6.251-8.353,13.614-9.1,18.908C179.633,278.155,178.676,270.792,181.991,264.464Z" transform="translate(20.171 -33.117)" fill="#e6e6e6"/>
        <path id="Path_21" data-name="Path 21" d="M182.216,316.74h0c-3.937,0-7.2-1.969-7.43-4.5l-.656-4.316h16.183l-.667,4.316C189.423,314.771,186.22,316.74,182.216,316.74Z" transform="translate(19.545 -26.611)" fill="#f0f0f0"/>
        <path id="Path_22" data-name="Path 22" d="M191.517,309.9H173.243l-.523-4.816h19.32Z" transform="translate(19.387 -26.93)" fill="#f0f0f0"/>
        <rect id="Rectangle_14" data-name="Rectangle 14" width="178.193" height="162.532" transform="translate(366.762 190.995) rotate(180)" fill="#e6e6e6"/>
        <rect id="Rectangle_15" data-name="Rectangle 15" width="180.45" height="162.532" transform="translate(365.016 190.995) rotate(180)" fill="#f5f5f5"/>
        <rect id="Rectangle_16" data-name="Rectangle 16" width="147.973" height="166.058" transform="translate(357.809 35.748) rotate(90)" fill="#fafafa"/>
        <path id="Path_23" data-name="Path 23" d="M312.226,235.113,246.87,87.14h-22.2l65.355,147.973Z" transform="translate(25.218 -51.392)" fill="#fff"/>
        <path id="Path_24" data-name="Path 24" d="M285.908,235.113,220.552,87.14H205.27l65.355,147.973Z" transform="translate(23.04 -51.392)" fill="#fff"/>
        <rect id="Rectangle_17" data-name="Rectangle 17" width="147.973" height="8.587" transform="translate(253.414 35.736) rotate(90)" fill="#e6e6e6"/>
        <rect id="Rectangle_18" data-name="Rectangle 18" width="147.973" height="8.587" transform="translate(310.494 35.736) rotate(90)" fill="#e6e6e6"/>
        <rect id="Rectangle_19" data-name="Rectangle 19" width="158.005" height="10.855" transform="translate(251.868 30.331) rotate(90)" fill="#f5f5f5"/>
        <rect id="Rectangle_20" data-name="Rectangle 20" width="158.005" height="10.855" transform="translate(308.948 30.331) rotate(90)" fill="#f5f5f5"/>
        <rect id="Rectangle_21" data-name="Rectangle 21" width="147.973" height="0.767" transform="translate(192.529 35.748) rotate(90)" fill="#e6e6e6"/>
        <path id="Path_25" data-name="Path 25" d="M163.314,72.17H356.355a.945.945,0,0,1,.934.934h0a.934.934,0,0,1-.934.923H163.314a.934.934,0,0,1-.934-.923h0a.945.945,0,0,1,.934-.934Z" transform="translate(18.226 -53.073)" fill="#e6e6e6"/>
        <path id="Path_26" data-name="Path 26" d="M329.877,78.205h0a1.257,1.257,0,0,0,1.246-1.257V74.257A1.246,1.246,0,0,0,329.877,73h0a1.257,1.257,0,0,0-1.257,1.246v2.692a1.268,1.268,0,0,0,1.257,1.268Z" transform="translate(36.886 -52.98)" fill="#e6e6e6"/>
        <path id="Path_27" data-name="Path 27" d="M175.926,78.205h0a1.268,1.268,0,0,0,1.257-1.257V74.257A1.257,1.257,0,0,0,175.926,73h0a1.246,1.246,0,0,0-1.246,1.246v2.692A1.257,1.257,0,0,0,175.926,78.205Z" transform="translate(19.607 -52.98)" fill="#e6e6e6"/>
        <rect id="Rectangle_22" data-name="Rectangle 22" width="180.328" height="127.285" transform="translate(362.158 147.306) rotate(180)" fill="#e0e0e0" opacity="0.6"/>
        <rect id="Rectangle_23" data-name="Rectangle 23" width="43.066" height="26.36" rx="5.38" transform="translate(341.403 227.977)" fill="#fafafa"/>
        <rect id="Rectangle_24" data-name="Rectangle 24" width="43.066" height="5.65" rx="1.81" transform="translate(341.403 223.105)" fill="#e6e6e6"/>
        <path id="Path_28" data-name="Path 28" d="M307.52,310s.567,18.541,22.167,18.541S351.854,310,351.854,310Z" transform="translate(34.517 -26.378)" fill="#f0f0f0"/>
        <path id="Path_29" data-name="Path 29" d="M351.8,310s.567,18.541,22.167,18.541S396.134,310,396.134,310Z" transform="translate(39.487 -26.378)" fill="#f0f0f0"/>
        <rect id="Rectangle_25" data-name="Rectangle 25" width="59.171" height="38.306" rx="7.4" transform="translate(373.981 216.042)" fill="#f0f0f0"/>
        <rect id="Rectangle_26" data-name="Rectangle 26" width="59.171" height="7.763" rx="2.48" transform="translate(373.981 209.347)" fill="#f5f5f5"/>
        <rect id="Rectangle_27" data-name="Rectangle 27" width="5.606" height="91.916" transform="translate(331.371 364.149) rotate(180)" fill="#e6e6e6"/>
        <rect id="Rectangle_28" data-name="Rectangle 28" width="30.353" height="17.885" transform="translate(457.277 254.337)" fill="#e6e6e6"/>
        <rect id="Rectangle_29" data-name="Rectangle 29" width="150.909" height="17.885" transform="translate(457.266 272.233) rotate(180)" fill="#f5f5f5"/>
        <rect id="Rectangle_30" data-name="Rectangle 30" width="30.353" height="17.885" transform="translate(457.277 302.108)" fill="#e6e6e6"/>
        <rect id="Rectangle_31" data-name="Rectangle 31" width="150.909" height="17.885" transform="translate(457.266 319.993) rotate(180)" fill="#f5f5f5"/>
        <rect id="Rectangle_32" data-name="Rectangle 32" width="5.606" height="91.916" transform="translate(482.28 364.149) rotate(180)" fill="#e6e6e6"/>
        <rect id="Rectangle_33" data-name="Rectangle 33" width="5.606" height="91.916" transform="translate(457.277 364.149) rotate(180)" fill="#f5f5f5"/>
        <rect id="Rectangle_34" data-name="Rectangle 34" width="5.606" height="91.916" transform="translate(311.962 364.149) rotate(180)" fill="#f5f5f5"/>
      </g>
      <g id="freepik--Shadow--inject-6" transform="translate(62.408 444.196)">
        <ellipse id="freepik--path--inject-6" cx="215.653" cy="12.591" rx="215.653" ry="12.591" fill="#f5f5f5"/>
      </g>
      <g id="freepik--Login--inject-6" transform="translate(126.112 128.92)">
        <path id="Path_30" data-name="Path 30" d="M276.913,392.082H135.024a9.043,9.043,0,0,1-8.9-8.5L113.4,137.166a7.975,7.975,0,0,1,8.053-8.486H263.343a9.031,9.031,0,0,1,8.9,8.486l12.7,246.418a7.986,7.986,0,0,1-8.03,8.5Z" transform="translate(-113.385 -120.65)" fill="#407bff"/>
        <path id="Path_31" data-name="Path 31" d="M276.913,392.082H135.024a9.043,9.043,0,0,1-8.9-8.5L113.4,137.166a7.975,7.975,0,0,1,8.053-8.486H263.343a9.031,9.031,0,0,1,8.9,8.486l12.7,246.418a7.986,7.986,0,0,1-8.03,8.5Z" transform="translate(-113.385 -120.65)" fill="#fff" opacity="0.8"/>
        <rect id="Rectangle_35" data-name="Rectangle 35" width="15.694" height="1.112" transform="translate(120.261)" fill="#3636a4"/>
        <rect id="Rectangle_36" data-name="Rectangle 36" width="5.75" height="1.112" transform="translate(109.072)" fill="#3636a4"/>
        <path id="Path_32" data-name="Path 32" d="M281.683,376.862H145.989a8.642,8.642,0,0,1-8.542-8.108L125.3,133.069a7.63,7.63,0,0,1,7.708-8.119H268.7a8.642,8.642,0,0,1,8.531,8.119L289.38,368.754a7.619,7.619,0,0,1-7.7,8.108Z" transform="translate(-112.049 -121.068)" fill="#3636a4"/>
        <path id="Path_33" data-name="Path 33" d="M281.137,370.9H145.443a3.248,3.248,0,0,1-3.125-2.981L130.161,132.244a2.218,2.218,0,0,1,2.291-2.414H268.146a3.248,3.248,0,0,1,3.114,2.981l12.212,235.673a2.225,2.225,0,0,1-2.28,2.414ZM132.452,130.108a1.991,1.991,0,0,0-1.49.6,2.047,2.047,0,0,0-.523,1.524l12.146,235.673a2.97,2.97,0,0,0,2.847,2.714H281.126a1.935,1.935,0,0,0,1.479-.6,1.957,1.957,0,0,0,.523-1.524L270.993,132.822a2.959,2.959,0,0,0-2.836-2.714Z" transform="translate(-111.503 -120.521)" fill="#fff"/>
        <ellipse id="Ellipse_3" data-name="Ellipse 3" cx="40.041" cy="42.154" rx="40.041" ry="42.154" transform="translate(33.847 65.041) rotate(-45.74)" fill="#fff" opacity="0.3"/>
        <path id="Path_34" data-name="Path 34" d="M232.714,183.964a31.933,31.933,0,0,1-3.192,15.838,31.221,31.221,0,0,1-28.329,17.407,35.314,35.314,0,0,1-30.12-17.407,34.235,34.235,0,0,1-4.827-15.838,31.243,31.243,0,0,1,31.521-33.234,35.38,35.38,0,0,1,34.947,33.234Z" transform="translate(-107.459 -118.175)" fill="#fff"/>
        <path id="Path_35" data-name="Path 35" d="M229,195.748a31.221,31.221,0,0,1-28.329,17.407,35.314,35.314,0,0,1-30.12-17.407,50.229,50.229,0,0,1,28.763-8.9A54.656,54.656,0,0,1,229,195.748Z" transform="translate(-106.969 -114.12)" fill="#3636a4"/>
        <ellipse id="Ellipse_4" data-name="Ellipse 4" cx="14.426" cy="15.193" rx="14.426" ry="15.193" transform="translate(70.455 54.141) rotate(-45.74)" fill="#3636a4"/>
        <path id="Path_36" data-name="Path 36" d="M259.579,271.264H153.326a3.659,3.659,0,0,1-3.615-3.437l-.8-15.571a3.225,3.225,0,0,1,3.259-3.426H258.422a3.659,3.659,0,0,1,3.615,3.426l.8,15.571a3.226,3.226,0,0,1-3.259,3.437Z" transform="translate(-109.398 -107.164)" fill="#fff"/>
        <path id="Path_37" data-name="Path 37" d="M224.022,242.132H179.643a3.659,3.659,0,0,1-3.626-3.448l-.167-3.337a3.225,3.225,0,0,1,3.259-3.437h44.367a3.659,3.659,0,0,1,3.615,3.437l.178,3.337a3.248,3.248,0,0,1-3.248,3.448Z" transform="translate(-106.375 -109.063)" opacity="0.3"/>
        <path id="Path_38" data-name="Path 38" d="M241.37,338.265H174.891a6.24,6.24,0,0,1-6.151-5.85l-.389-7.674a5.561,5.561,0,0,1,5.561-5.85h66.457a6.24,6.24,0,0,1,6.151,5.85l.389,7.674a5.561,5.561,0,0,1-5.539,5.85Z" transform="translate(-107.216 -99.3)" opacity="0.3"/>
        <path id="Path_39" data-name="Path 39" d="M261.33,305.125H155.066a3.67,3.67,0,0,1-3.615-3.437l-.8-15.571a3.237,3.237,0,0,1,3.259-3.437H260.162a3.659,3.659,0,0,1,3.615,3.437l.812,15.571a3.248,3.248,0,0,1-3.259,3.437Z" transform="translate(-109.203 -103.364)" fill="#fff"/>
        <path id="Path_40" data-name="Path 40" d="M165.769,259.294a3.581,3.581,0,0,1-3.615,3.8,4.049,4.049,0,0,1-3.993-3.8,3.57,3.57,0,0,1,3.6-3.8,4.06,4.06,0,0,1,4,3.8Z" transform="translate(-108.36 -106.416)" fill="#263238"/>
        <path id="Path_41" data-name="Path 41" d="M176.3,259.294a3.57,3.57,0,0,1-3.6,3.8,4.037,4.037,0,0,1-3.993-3.8,3.57,3.57,0,0,1,3.6-3.8A4.037,4.037,0,0,1,176.3,259.294Z" transform="translate(-107.177 -106.416)" fill="#263238"/>
        <path id="Path_42" data-name="Path 42" d="M186.768,259.294a3.57,3.57,0,0,1-3.6,3.8,4.06,4.06,0,0,1-4-3.8,3.581,3.581,0,0,1,3.615-3.8A4.049,4.049,0,0,1,186.768,259.294Z" transform="translate(-106.003 -106.416)" fill="#263238"/>
        <path id="Path_43" data-name="Path 43" d="M197.318,259.294a3.581,3.581,0,0,1-3.6,3.8,4.06,4.06,0,0,1-4-3.8,3.581,3.581,0,0,1,3.6-3.8,4.06,4.06,0,0,1,4,3.8Z" transform="translate(-104.819 -106.416)" fill="#263238"/>
        <path id="Path_44" data-name="Path 44" d="M167.538,293.134a3.57,3.57,0,0,1-3.6,3.8,4.06,4.06,0,0,1-4-3.8,3.581,3.581,0,0,1,3.615-3.8A4.049,4.049,0,0,1,167.538,293.134Z" transform="translate(-108.162 -102.618)" fill="#263238"/>
        <path id="Path_45" data-name="Path 45" d="M178.049,293.134a3.581,3.581,0,0,1-3.6,3.8,4.06,4.06,0,0,1-4-3.8,3.57,3.57,0,0,1,3.6-3.8,4.06,4.06,0,0,1,4,3.8Z" transform="translate(-106.982 -102.618)" fill="#263238"/>
        <path id="Path_46" data-name="Path 46" d="M188.559,293.134a3.581,3.581,0,0,1-3.615,3.8,4.037,4.037,0,0,1-3.993-3.8,3.57,3.57,0,0,1,3.6-3.8,4.06,4.06,0,0,1,4,3.8Z" transform="translate(-105.802 -102.618)" fill="#263238"/>
        <path id="Path_47" data-name="Path 47" d="M199.058,293.134a3.57,3.57,0,0,1-3.6,3.8,4.06,4.06,0,0,1-4-3.8,3.581,3.581,0,0,1,3.615-3.8,4.038,4.038,0,0,1,3.993,3.8Z" transform="translate(-104.624 -102.618)" fill="#263238"/>
        <path id="Path_48" data-name="Path 48" d="M209.568,293.134a3.57,3.57,0,0,1-3.6,3.8,4.06,4.06,0,0,1-4-3.8,3.581,3.581,0,0,1,3.6-3.8A4.06,4.06,0,0,1,209.568,293.134Z" transform="translate(-103.444 -102.618)" fill="#263238"/>
        <path id="Path_49" data-name="Path 49" d="M220.079,293.134a3.581,3.581,0,0,1-3.615,3.8,4.049,4.049,0,0,1-3.993-3.8,3.57,3.57,0,0,1,3.6-3.8,4.06,4.06,0,0,1,4,3.8Z" transform="translate(-102.264 -102.618)" fill="#263238"/>
      </g>
      <g id="freepik--Character--inject-6" transform="translate(261.511 110.161)">
        <path id="Path_50" data-name="Path 50" d="M333.993,176.62c.278.423.423.645.6.945l.5.823c.323.556.612,1.112.89,1.657.556,1.112,1.112,2.224,1.557,3.337a61.409,61.409,0,0,1,2.4,6.774,70.93,70.93,0,0,1,2.647,13.948l.078.879a5.1,5.1,0,0,1,0,.534v.589a14.229,14.229,0,0,1-.134,2.313,19.062,19.062,0,0,1-1.112,4.149,28.708,28.708,0,0,1-3.848,6.673,47.7,47.7,0,0,1-10.355,9.8l-3.07-3.593a63.788,63.788,0,0,0,7.385-10.222,23.355,23.355,0,0,0,2.225-5.25,10.605,10.605,0,0,0,.367-2.38,5.214,5.214,0,0,0,0-1.034v-.234a1.448,1.448,0,0,0,0-.311l-.133-.779A88.154,88.154,0,0,0,330.968,193c-.645-1.991-1.435-3.915-2.224-5.795-.389-.945-.834-1.869-1.279-2.758l-.69-1.312-.345-.612-.289-.489Z" transform="translate(-225.127 -96.51)" fill="#ffb8b8"/>
        <path id="Path_51" data-name="Path 51" d="M323.7,224.212l4.026,8.509,3.192-7.2s-2.836-6.229-6.673-5.65Z" transform="translate(-225.177 -91.66)" fill="#ffb8b8"/>
        <path id="Path_52" data-name="Path 52" d="M330.2,232.569l3.2-5.25-2.892-2.369-3.192,7.2Z" transform="translate(-224.771 -91.086)" fill="#ffb8b8"/>
        <path id="Path_53" data-name="Path 53" d="M313.847,408.458a11.421,11.421,0,0,0,2.469-.334.245.245,0,0,0,.167-.178.223.223,0,0,0-.1-.222c-.323-.211-3.148-2.035-4.238-1.546a.756.756,0,0,0-.434.623,1.257,1.257,0,0,0,.367,1.112,2.636,2.636,0,0,0,1.769.545Zm1.835-.656c-1.613.334-2.836.278-3.337-.156a.856.856,0,0,1-.234-.79.27.27,0,0,1,.189-.278C312.9,406.312,314.537,407.1,315.682,407.8Z" transform="translate(-226.525 -70.753)" fill="#407bff"/>
        <path id="Path_54" data-name="Path 54" d="M316.052,408.343h.111a.245.245,0,0,0,.111-.2c0-.111,0-2.792-1.023-3.693a1.168,1.168,0,0,0-.934-.289.767.767,0,0,0-.745.612c-.211,1.057,1.479,3.059,2.369,3.57Zm-1.591-3.771a.678.678,0,0,1,.489.189,5.038,5.038,0,0,1,.868,2.936c-.89-.712-1.946-2.224-1.813-2.858,0-.1.078-.234.356-.267Z" transform="translate(-226.316 -70.971)" fill="#407bff"/>
        <path id="Path_55" data-name="Path 55" d="M304.762,404.18a.234.234,0,0,0-.156-.378c-.456,0-4.449-.189-5.361.79v.067a.7.7,0,0,0-.1.69,1.234,1.234,0,0,0,.812.812c1.29.4,3.57-1.057,4.816-1.958Zm-5.183.7c.5-.534,2.7-.678,4.349-.656-1.724,1.179-3.159,1.735-3.882,1.513a.8.8,0,0,1-.534-.534.3.3,0,0,1,0-.278Z" transform="translate(-227.939 -71.012)" fill="#3636a4"/>
        <path id="Path_56" data-name="Path 56" d="M304.651,404.438h0a.256.256,0,0,0,0-.222c-.056-.089-1.3-2.224-2.769-2.669a1.613,1.613,0,0,0-1.268.156c-.534.311-.567.678-.5.912.289,1.034,3.125,1.946,4.349,1.935a.223.223,0,0,0,.189-.111Zm-3.993-2.224a.933.933,0,0,1,.211-.156,1.112,1.112,0,0,1,.934-.122c.968.256,1.869,1.5,2.28,2.113-1.324-.145-3.337-.957-3.5-1.579a.256.256,0,0,1,.078-.267Z" transform="translate(-227.828 -71.271)" fill="#3636a4"/>
        <path id="Path_57" data-name="Path 57" d="M317.054,147.33c-1.112,5.561-3.515,17.585.345,21.277,0,0-1.513,5.561-11.779,5.561-11.3,0-5.394-5.561-5.394-5.561,6.162-1.468,6.006-6.051,4.927-10.344Z" transform="translate(-227.985 -99.798)" fill="#ffb8b8"/>
        <path id="Path_58" data-name="Path 58" d="M298.614,135.918a.589.589,0,0,0,.189,0,.445.445,0,0,0,.2-.6,4.382,4.382,0,0,0-3.2-2.447.456.456,0,0,0-.489.389.445.445,0,0,0,.389.489h0a3.493,3.493,0,0,1,2.514,1.969.445.445,0,0,0,.4.2Z" transform="translate(-228.364 -101.421)" fill="#263238"/>
        <path id="Path_59" data-name="Path 59" d="M295.578,140a20.31,20.31,0,0,1-3.248,4.449,3.237,3.237,0,0,0,2.591.823Z" transform="translate(-228.699 -100.621)" fill="#ffb8b8"/>
        <path id="Path_60" data-name="Path 60" d="M296.18,139.017c-.089.745-.567,1.3-1.046,1.246s-.812-.712-.723-1.457.567-1.3,1.112-1.246S296.258,138.272,296.18,139.017Z" transform="translate(-228.466 -100.895)" fill="#263238"/>
        <path id="Path_61" data-name="Path 61" d="M295.713,137.69,294,137S294.723,138.468,295.713,137.69Z" transform="translate(-228.511 -100.957)" fill="#263238"/>
        <path id="Path_62" data-name="Path 62" d="M314.493,404.346l-9.076,2.113L299.9,385.593l9.076-2.113Z" transform="translate(-227.849 -73.292)" fill="#ffb8b8"/>
        <path id="Path_63" data-name="Path 63" d="M326.479,409.9H317.17l.723-21.566h9.321Z" transform="translate(-225.91 -72.747)" fill="#ffb8b8"/>
        <path id="Path_64" data-name="Path 64" d="M317.855,406.75h10.466a.745.745,0,0,1,.745.645l1.19,8.275a1.49,1.49,0,0,1-1.49,1.657c-3.648-.056-5.405-.278-10.01-.278-2.836,0-6.974.3-10.878.3s-4.126-3.871-2.491-4.215c7.3-1.579,8.453-3.737,10.911-5.806A2.414,2.414,0,0,1,317.855,406.75Z" transform="translate(-227.341 -70.68)" fill="#263238"/>
        <path id="Path_65" data-name="Path 65" d="M305.217,403.338l9.51-4.371a.734.734,0,0,1,.934.267l4.549,7.029a1.5,1.5,0,0,1-.667,2.124c-3.337,1.468-5.027,2.013-9.209,3.937-2.569,1.179-7.786,3.893-11.323,5.561s-5.361-1.791-4.026-2.792c5.973-4.449,7.686-7.641,9.054-10.544A2.381,2.381,0,0,1,305.217,403.338Z" transform="translate(-228.45 -71.561)" fill="#263238"/>
        <path id="Path_66" data-name="Path 66" d="M299.9,385.593l2.959,11.189,8.965-2.547-2.836-10.755Z" transform="translate(-227.849 -73.292)" opacity="0.2"/>
        <path id="Path_67" data-name="Path 67" d="M327.178,388.33h-9.321l-.367,11.122h9.321Z" transform="translate(-225.874 -72.747)" opacity="0.2"/>
        <path id="Path_68" data-name="Path 68" d="M331.051,168.374c3.871.856,8.008,14.771,8.008,14.771L328.115,194.79s-9.087-13.08-7.23-17.885C322.765,171.889,326.435,167.373,331.051,168.374Z" transform="translate(-225.521 -97.452)" fill="#263238"/>
        <path id="Path_69" data-name="Path 69" d="M324.872,176.445c-1.958-1.791-3.281-1.257-4.182.167-.89,4.138,4.382,12.8,6.507,16.083C328.176,188.779,329.3,180.527,324.872,176.445Z" transform="translate(-225.527 -96.657)" opacity="0.4"/>
        <path id="Path_70" data-name="Path 70" d="M286.022,168.883s-4.449,1.557,4.449,56.224h37.816c-.634-15.393-.656-24.892,6.673-56.5a111.534,111.534,0,0,0-16.072-2.113,119.453,119.453,0,0,0-17.173,0C294.386,167.17,286.022,168.883,286.022,168.883Z" transform="translate(-229.531 -97.682)" fill="#263238"/>
        <path id="Path_71" data-name="Path 71" d="M285.6,188.109c.245,2.658.567,5.65.99,9.031,3.1-2.792,5.639-10.733,4.7-15.36A27.351,27.351,0,0,0,285.6,188.109Z" transform="translate(-229.454 -95.931)" opacity="0.4"/>
        <path id="Path_72" data-name="Path 72" d="M294.275,180.363a164.687,164.687,0,0,1-6.885,15.071,92.6,92.6,0,0,1-8.9,14.459l-.712.879-.356.434c-.122.145-.222.278-.412.478a13.834,13.834,0,0,1-2.224,1.958,18.131,18.131,0,0,1-4.649,2.313,33.956,33.956,0,0,1-8.9,1.579,66.022,66.022,0,0,1-16.862-1.5l.612-4.671c2.558,0,5.239,0,7.786-.211a62.774,62.774,0,0,0,7.63-.845,30.032,30.032,0,0,0,6.829-1.913,10.2,10.2,0,0,0,2.458-1.49,5.082,5.082,0,0,0,.767-.8s.133-.178.222-.3l.256-.367.523-.734a110.276,110.276,0,0,0,7.441-13.469c2.225-4.727,4.449-9.632,6.484-14.459Z" transform="translate(-234.081 -96.493)" fill="#ffb8b8"/>
        <path id="Path_73" data-name="Path 73" d="M286.953,168.643c-4.638,1.112-10.333,13.836-10.333,13.836l9.61,14.126s12.8-16.116,11.278-21.033C295.951,170.444,292.614,167.263,286.953,168.643Z" transform="translate(-230.462 -97.442)" fill="#263238"/>
        <path id="Path_74" data-name="Path 74" d="M248.22,208.884l-8.019-3.7-.8,7.975s6.673,1.969,10.01,0Z" transform="translate(-234.64 -93.305)" fill="#ffb8b8"/>
        <path id="Path_75" data-name="Path 75" d="M235.887,204.46l-.767,6.073,4.76,2.7.8-7.975Z" transform="translate(-235.12 -93.385)" fill="#ffb8b8"/>
        <path id="Path_76" data-name="Path 76" d="M321.573,140.883c-1.7,9.087-2.224,12.98-7.43,17.106-7.786,6.206-18.63,2.135-19.676-7.274-.957-8.475,1.98-21.911,11.4-24.469a12.6,12.6,0,0,1,15.7,14.637Z" transform="translate(-228.478 -102.215)" fill="#ffb8b8"/>
        <path id="Path_77" data-name="Path 77" d="M301.375,143.339c-.523,4.638-.723,16.684,9.465,17.062,12.468.456,16.205-10.2,15.093-14.459,6.5-5.283,7.43-14.37.133-21.322s-23.357-3.07-27.806,3.7C292.622,136.721,301.375,143.339,301.375,143.339Z" transform="translate(-228.245 -102.759)" fill="#263238"/>
        <path id="Path_78" data-name="Path 78" d="M312.121,127.514c-.6-4.894-.133-8.264,4.449-8.264s10.833,1.657,13.124,6.34,2.48,12.012-3.915,11.267S312.844,133.364,312.121,127.514Z" transform="translate(-226.501 -102.95)" fill="#3636a4"/>
        <path id="Path_79" data-name="Path 79" d="M318.495,127.98c-1.112-5.828,4.1-22.245,16.773-23.357,5.873-.5,8.587,5.817,5.561,6.863,5.561-.067,9.12,7.285,3.937,8.386,4.093,2.625,3.081,8.008-2.758,10.655C337.659,132.529,320,136.055,318.495,127.98Z" transform="translate(-225.778 -104.595)" fill="#263238"/>
        <path id="Path_80" data-name="Path 80" d="M332.023,132.455c-4.082,0-8.342-.6-10.989-2.369a5.439,5.439,0,0,1-2.614-4.227.289.289,0,0,1,.256-.3.267.267,0,0,1,.3.256,4.961,4.961,0,0,0,2.369,3.815c5.038,3.337,16.684,2.224,20.31,1.112,3.137-1.023,5.261-3.014,5.684-5.305a4.6,4.6,0,0,0-1.857-4.449.267.267,0,0,1,0-.389.278.278,0,0,1,.389,0,5.183,5.183,0,0,1,2.058,5.038c-.456,2.5-2.714,4.638-6.051,5.728a36.36,36.36,0,0,1-9.854,1.09Z" transform="translate(-225.77 -102.807)" fill="#263238"/>
        <path id="Path_81" data-name="Path 81" d="M298.448,140.145a6.84,6.84,0,0,0-1.19,5.016c.367,2.336,2.636,2.491,4.282,1s3.081-4.182,1.869-6.117a2.914,2.914,0,0,0-4.961.1Z" transform="translate(-228.154 -100.766)" fill="#ffb8b8"/>
        <path id="Path_82" data-name="Path 82" d="M298.89,219.16s5.405,63.943,11.022,99.98c4.527,29.107,8.108,97.143,8.108,97.143h12.7s4.516-66,2.224-94.785c-5.817-72.852,7.163-78.791-6.2-102.326Z" transform="translate(-227.962 -91.735)" fill="#3636a4"/>
        <path id="Path_83" data-name="Path 83" d="M314.481,240.89a62.063,62.063,0,0,0-12,18.107c1.479,14.37,3.237,30.32,5.105,44.29a122.769,122.769,0,0,0,6.9-62.4Z" transform="translate(-227.559 -89.296)" opacity="0.4"/>
        <path id="Path_84" data-name="Path 84" d="M292.27,218.8s-11.734,69.838-13.58,101.314c4.6,29.107,23.446,90.637,23.446,90.637l11.556-4.193s-6.4-67.091-13.347-85.454c15.649-52.687,27.15-66.012,23.8-101.9C316.128,219.2,292.27,218.8,292.27,218.8Z" transform="translate(-230.23 -91.776)" fill="#3636a4"/>
        <path id="Path_85" data-name="Path 85" d="M298.581,395.2l15.616-4.238-.89-6.229-16.717,4.527Z" transform="translate(-228.22 -73.151)" fill="#263238"/>
        <path id="Path_86" data-name="Path 86" d="M314.529,397.251h16.183l.845-5.672L314.44,391Z" transform="translate(-226.217 -72.447)" fill="#263238"/>
        <path id="Path_87" data-name="Path 87" d="M328.435,217.184l1.7,3.392c.133.267-.178.534-.612.534H289.84c-.334,0-.623-.167-.645-.389l-.345-3.337c0-.234.278-.434.645-.434h38.317a.7.7,0,0,1,.623.234Z" transform="translate(-229.089 -91.984)" fill="#407bff"/>
        <path id="Path_88" data-name="Path 88" d="M328.435,217.184l1.7,3.392c.133.267-.178.534-.612.534H289.84c-.334,0-.623-.167-.645-.389l-.345-3.337c0-.234.278-.434.645-.434h38.317a.7.7,0,0,1,.623.234Z" transform="translate(-229.089 -91.984)" opacity="0.5"/>
        <path id="Path_89" data-name="Path 89" d="M319.9,221.5h1.023c.211,0,.367-.111.356-.234l-.489-4.449c0-.133-.189-.234-.389-.234h-1.034c-.2,0-.356.1-.345.234l.478,4.449C319.521,221.407,319.7,221.5,319.9,221.5Z" transform="translate(-225.703 -92.025)" fill="#407bff"/>
        <path id="Path_90" data-name="Path 90" d="M309.152,194.726a.578.578,0,0,1-.545-.412c-3.626-13.414-11.122-24.469-14.759-26.138a1.268,1.268,0,0,0-.945-.156.556.556,0,1,1-.456-1.012,2.224,2.224,0,0,1,1.869.156c3.848,1.824,11.456,12.724,15.26,26.438,2.725,0,6.929-.367,7.953-.456,1.268-1.513,10.589-13.169,7.107-25.926a.545.545,0,0,1,.389-.678.556.556,0,0,1,.678.389c3.882,14.192-7.374,26.994-7.5,27.117a.512.512,0,0,1-.356.189C317.794,194.237,312.244,194.726,309.152,194.726Z" transform="translate(-228.726 -97.644)" fill="#3636a4"/>
        <path id="Path_91" data-name="Path 91" d="M326.374,201.446c-6.062-11.356-8.542-12.157-9.621-15.8a18.909,18.909,0,0,1,3.448-5.561c-.734-.211-2.313-.523-3.337-.712.111-.5.234-.99.345-1.468a10.611,10.611,0,0,0-3.337.156v-1.112a14.46,14.46,0,0,0-4.3-.278q.189.79.367,1.6c-1.112.211-2.8.556-3.615.79a16.016,16.016,0,0,1,3.392,6.2c-3.27,5.617-15.972,41.72,4.694,44.49S332.424,212.813,326.374,201.446Z" transform="translate(-227.517 -96.511)" fill="#407bff"/>
        <path id="Path_92" data-name="Path 92" d="M326.374,201.446c-6.062-11.356-8.542-12.157-9.621-15.8a18.909,18.909,0,0,1,3.448-5.561c-.734-.211-2.313-.523-3.337-.712.111-.5.234-.99.345-1.468a10.611,10.611,0,0,0-3.337.156v-1.112a14.46,14.46,0,0,0-4.3-.278q.189.79.367,1.6c-1.112.211-2.8.556-3.615.79a16.016,16.016,0,0,1,3.392,6.2c-3.27,5.617-15.972,41.72,4.694,44.49S332.424,212.813,326.374,201.446Z" transform="translate(-227.517 -96.511)" fill="#fff" opacity="0.4"/>
        <path id="Path_93" data-name="Path 93" d="M308.277,183.436a6.994,6.994,0,0,0-.167,1.746c0,.412,1.112.69,2.347.812s6.418.323,6.251-.256.256-1.368.278-1.857-2.058-.512-3.8-.445S308.622,182.814,308.277,183.436Z" transform="translate(-226.928 -95.775)" fill="#3636a4"/>
        <path id="Path_94" data-name="Path 94" d="M297.535,221.5h1.023c.2,0,.356-.111.345-.234l-.478-4.449c0-.133-.189-.234-.4-.234h-.99c-.2,0-.356.1-.345.234l.478,4.449C297.146,221.407,297.324,221.5,297.535,221.5Z" transform="translate(-228.209 -92.025)" fill="#3636a4"/>
      </g>
    </g>
  </g>
</svg>
