<svg xmlns="http://www.w3.org/2000/svg" xmlns:xlink="http://www.w3.org/1999/xlink" width="500" height="380" viewBox="0 0 500 380">
  <defs>
    <clipPath id="clip-path">
      <rect id="Rectangle_1" data-name="Rectangle 1" width="500" height="380"/>
    </clipPath>
  </defs>
  <g id="welcome" clip-path="url(#clip-path)">
    <g id="welcome-2" data-name="welcome" clip-path="url(#clip-path)">
      <g id="welcome-3" data-name="welcome" transform="translate(12.5 9.143)">
        <path id="Path_1" data-name="Path 1" d="M426.41,296.375c-7.053,10.283-16.891,18.444-30.355,24.836-33.216,15.769-61.816,8.081-108.821,5.209-54.523-3.331-139.928-.554-156.96,0-14.93.485-36.592,1.371-56.4-12.108-4.509-3.069-25.4-18-29.439-45.456-3.379-22.935,6.646-40.841,13.492-50.044a30.149,30.149,0,0,1,10.557-8.788c5.115-2.611,10.378-6.585,12.852-12.678,4.328-10.656-2.137-22.209-4.7-27.64C61.96,138.641,76.079,88.983,95.263,59.743,113.391,32.11,138.044,19.236,146.594,14.9A137.806,137.806,0,0,1,206.114.02,136.151,136.151,0,0,1,276.7,18.348,133.772,133.772,0,0,1,328.72,75.14a63.689,63.689,0,0,1,28.746-.24c34.552,8,49.054,44.412,52.379,51.589a70.824,70.824,0,0,1,6.712,33.551c-.671,12.26-2.108,27.332-10.382,37.086-1.834,2.162-3.579,4.733-3.569,6.631.071,14.035,25.882,19.229,34.614,40.91,8.718,21.644-7.23,46.484-10.813,51.708Z" fill="#007aff" opacity="0.2"/>
        <path id="Path_2" data-name="Path 2" d="M146.834,313.46c-12.889-3.528-24.434-8.5-32.755-19.132-16.89-21.574-12.1-55.966-.362-69.2,1.145-1.29,2.412-2.466,3.676-3.639,7.106-6.593,14.022-13.717,17.957-22.718,4.417-10.1.44-13.78,1.323-34.91.584-13.975,1.12-26.8,8-39.045,1.362-2.425,12.361-21.354,33.12-26.64,24.51-6.24,32.4,14.236,62.64,9.36,11.538-1.86,17.713-6.021,34.56-6.48a96.143,96.143,0,0,1,23.76,2.16,79.673,79.673,0,0,1,27.118,11c14.54,9.571,12.731,16.208,26.882,23.562,8.437,4.384,11.1,3.075,16.947,7.936,8.316,6.913,11.086,16.341,12.516,21.45.8,2.867,4.276,16.18-.859,33.977-6.587,22.829-19.065,24.361-17.8,36,1.718,15.862,25.395,17.578,29.741,35.778,2.75,11.515-3.272,24.276-9.94,31.242-18.336,19.154-47.343.257-101.881-.061C219.558,303.739,199.087,327.764,146.834,313.46Z" fill="#007aff" opacity="0.9"/>
        <path id="Path_3" data-name="Path 3" d="M307.988,240.752a.283.283,0,0,1-.034.048s10.1,13.324,15.757,15.757c-.685-.153-44.718-10.2-56.528-38.4A52.054,52.054,0,1,1,310.109,240.8c-.709,0-1.418-.019-2.122-.048Z" fill="#e6e7e8"/>
        <path id="Path_4" data-name="Path 4" d="M290.64,217.382a66.251,66.251,0,0,1-11.628,37.59c-15.106,36.109-71.476,48.963-72.357,49.16,5.663-2.434,14.8-13.391,18.517-18.057,1.035-1.3,1.653-2.118,1.653-2.118-.019-.019-.029-.043-.043-.057-.9.034-1.806.057-2.716.057a66.578,66.578,0,1,1,66.575-66.576Z" fill="#fff"/>
        <path id="Path_5" data-name="Path 5" d="M275.223,205.621a75.249,75.249,0,0,1-13.2,42.687c-6.99,16.7-21.741,29.014-36.847,37.767,1.035-1.3,1.653-2.118,1.653-2.118-.019-.019-.029-.043-.043-.057-.9.034-1.806.057-2.716.057a66.575,66.575,0,1,1,37.633-121.5,75.24,75.24,0,0,1,13.525,43.161Z" fill="#e6e7e8"/>
        <circle id="Ellipse_1" data-name="Ellipse 1" cx="14.804" cy="14.804" r="14.804" transform="translate(168.019 206.208)" fill="#007aff" opacity="0.9"/>
        <circle id="Ellipse_2" data-name="Ellipse 2" cx="14.804" cy="14.804" r="14.804" transform="translate(201.094 206.208)" fill="#007aff" opacity="0.6"/>
        <circle id="Ellipse_3" data-name="Ellipse 3" cx="14.804" cy="14.804" r="14.804" transform="translate(233.812 206.208)" fill="#007aff" opacity="0.4"/>
        <path id="Path_6" data-name="Path 6" d="M362.121,188.79a52.022,52.022,0,0,1-39.273,50.433,44.573,44.573,0,0,1-9.192-13.639,52.018,52.018,0,0,1,27-78.887A51.925,51.925,0,0,1,362.12,188.79Z" fill="#fff"/>
        <path id="Path_7" data-name="Path 7" d="M76.616,194.122a8.479,8.479,0,1,1-2.054-5.534A8.479,8.479,0,0,1,76.616,194.122Z" fill="#007aff" opacity="0.8"/>
        <path id="Path_8" data-name="Path 8" d="M371.084,95.319a8.966,8.966,0,1,1-.791-3.685,8.966,8.966,0,0,1,.791,3.685Z" fill="#006fba" opacity="0.6"/>
        <g id="Group_1" data-name="Group 1" opacity="0.9">
          <line id="Line_1" data-name="Line 1" x2="12.891" y2="14.226" transform="translate(193.788 65.921)" fill="none" stroke="#006fba" stroke-linecap="round" stroke-miterlimit="10" stroke-width="5"/>
          <line id="Line_2" data-name="Line 2" y1="14.226" x2="12.891" transform="translate(193.788 65.921)" fill="none" stroke="#006fba" stroke-linecap="round" stroke-miterlimit="10" stroke-width="5"/>
        </g>
        <path id="Path_9" data-name="Path 9" d="M405.68,276.349a9.3,9.3,0,0,1-8.017,9.213,9.423,9.423,0,0,1-1.277.086,9.3,9.3,0,1,1,9.294-9.3Z" fill="#e6e7e8"/>
        <path id="Path_10" data-name="Path 10" d="M397.257,135.161a4.17,4.17,0,0,1,.393,3.679,6.883,6.883,0,0,1-2.415,3.334,7.524,7.524,0,0,1-7.7.345,48.006,48.006,0,0,1-7.115-1.94,48.767,48.767,0,0,1-4.561-1.892,49.649,49.649,0,0,1-9.366-5.826c-3.493-3.919-3.67-9.3-1.006-12.428,2.53-2.98,6.683-2.793,7.249-2.76,2.28-5.524,7.158-8.988,12.04-8.729a11.237,11.237,0,0,1,6.784,2.99,15.537,15.537,0,0,1,3.358,3.55c.034.043.062.086.091.129a16.144,16.144,0,0,1,2.645,8.739,5.265,5.265,0,0,1,1.672,3.287c.182,2.4-1.648,4.892-4.6,5.907a4.018,4.018,0,0,1,2.53,1.615Z" fill="#e6e7e8"/>
        <path id="Path_11" data-name="Path 11" d="M355.351,294.3a8.46,8.46,0,0,1-3.449,3.449c-4.1,2.142-8.389-.259-8.739-.46a21.428,21.428,0,0,1-19,4.513q-.288-.072-.546-.144c-6.774-1.389-10.3-8.125-8.509-13.108,1.418-3.938,6.123-6.693,11.268-5.979A12.671,12.671,0,0,1,343.623,269.7a14.8,14.8,0,0,1,4.393,3.732,14.194,14.194,0,0,1,3.047,8.307c.331.153,4.9,2.381,5.462,7.167a8.816,8.816,0,0,1-1.174,5.4Z" fill="#e6e7e8"/>
        <path id="Path_12" data-name="Path 12" d="M164.083,156.921A13.618,13.618,0,0,1,152.5,167.657a43.621,43.621,0,0,1-9.865,5.083,43.082,43.082,0,0,1-9.453,2.26,9.974,9.974,0,0,1-9.6-2.419,8.2,8.2,0,0,1-1.428-2.074,9.859,9.859,0,0,1-.91-4.983,11.761,11.761,0,0,1,3.162-7.215c-.149-.335-.283-.676-.4-1.011a16.238,16.238,0,0,1-.987-6.338c.278-6.161,4.115-11.273,8.758-12.442a10.7,10.7,0,0,1,6.908.781,13.811,13.811,0,0,1,2.151,1.188,16.369,16.369,0,0,1,5.107,5.553,8.326,8.326,0,0,1,7.244-4.5,7.617,7.617,0,0,1,2.175.278,8.042,8.042,0,0,1,1.318.489,9.348,9.348,0,0,1,3.6,3.071c.465.47,4.935,5.169,3.8,11.546Z" fill="#e6e7e8"/>
        <path id="Path_13" data-name="Path 13" d="M397.257,135.161a4.17,4.17,0,0,1,.393,3.679,6.883,6.883,0,0,1-2.415,3.334,7.524,7.524,0,0,1-7.7.345,48.006,48.006,0,0,1-7.115-1.94,48.767,48.767,0,0,1-4.561-1.892c-2.927-3.838-2.942-8.782-.431-11.728,2.53-2.98,6.683-2.793,7.249-2.755,2.28-5.529,7.158-8.993,12.04-8.734l.2.014c.034.043.062.086.091.129a16.144,16.144,0,0,1,2.645,8.739,5.265,5.265,0,0,1,1.672,3.287c.182,2.4-1.648,4.892-4.6,5.907a4.018,4.018,0,0,1,2.53,1.615Z" fill="#fff"/>
        <path id="Path_14" data-name="Path 14" d="M158.334,150.937a13.612,13.612,0,0,1-11.584,10.736,43.23,43.23,0,0,1-19.317,7.349,11.294,11.294,0,0,1-5.275.019,9.61,9.61,0,0,1-.91-3.517,11.761,11.761,0,0,1,3.162-7.215c-.149-.335-.283-.676-.4-1.011.129-.153.264-.307.4-.455a16.611,16.611,0,0,1-1.389-5.883c.278-6.161,4.115-11.273,8.758-12.442a10.7,10.7,0,0,1,6.908.781,13.811,13.811,0,0,1,2.151,1.188,16.369,16.369,0,0,1,5.107,5.553,8.326,8.326,0,0,1,7.244-4.5,7.617,7.617,0,0,1,2.175.278,8.044,8.044,0,0,1,1.318.489,12.79,12.79,0,0,1,1.653,8.633Z" fill="#fff"/>
        <path id="Path_15" data-name="Path 15" d="M355.351,294.3a8.46,8.46,0,0,1-3.449,3.449c-4.1,2.142-8.389-.259-8.739-.46a21.428,21.428,0,0,1-19,4.513,9.557,9.557,0,0,1-1.653-8.8c1.413-3.938,6.123-6.693,11.268-5.979a13.176,13.176,0,0,1,6.616-12.241,12.506,12.506,0,0,1,7.622-1.351,14.194,14.194,0,0,1,3.047,8.307c.331.153,4.9,2.381,5.462,7.167a8.817,8.817,0,0,1-1.174,5.4Z" fill="#fff"/>
        <path id="Path_16" data-name="Path 16" d="M400.831,278.572a9.269,9.269,0,0,1-3.167,6.99,9.426,9.426,0,0,1-1.279.086,9.295,9.295,0,0,1-6.132-16.279,8.8,8.8,0,0,1,1.284-.091,9.3,9.3,0,0,1,9.294,9.294Z" fill="#fff"/>
        <path id="Path_17" data-name="Path 17" d="M76.616,194.122A8.481,8.481,0,0,1,64,201.529a8.483,8.483,0,0,1,10.565-12.941,8.431,8.431,0,0,1,2.055,5.534Z" fill="#007aff" opacity="0.9"/>
        <path id="Path_18" data-name="Path 18" d="M371.084,95.319a8.963,8.963,0,0,1-14.622,6.952,8.856,8.856,0,0,1-.8-3.684,8.967,8.967,0,0,1,14.627-6.952,8.931,8.931,0,0,1,.791,3.684Z" fill="#007aff" opacity="0.6"/>
        <ellipse id="Ellipse_4" data-name="Ellipse 4" cx="237.5" cy="12.6" rx="237.5" ry="12.6" transform="translate(0 336.514)" fill="#e6e7e8"/>
      </g>
    </g>
  </g>
</svg>
